<svg xmlns="http://www.w3.org/2000/svg" width="463.784" height="357.061"><defs><linearGradient id="a" y1=".5" x2="1" y2=".5" gradientUnits="objectBoundingBox"><stop offset="0" stop-color="#dae3fe"/><stop offset="1" stop-color="#e9effd"/></linearGradient><linearGradient id="d" x1=".5" x2=".5" y2="1" gradientUnits="objectBoundingBox"><stop offset="0" stop-color="#e2e4ff"/><stop offset="1" stop-color="#fff"/></linearGradient><style>.b,.bj{fill:#fff}.b{opacity:.43}.d{opacity:.3}.e{fill:#c4c6ff}.g{fill:url(#a)}.i{fill:#0b397d}.j{fill:#114085}.l{fill:#17468e}.o{fill:#dabea0}.p{fill:#f3dcc3}.q{fill:#f9eae1}.r{fill:#90cde2}.s{fill:#bf2353}.t{fill:#ff2d6e}.u{fill:#fff896}.v{fill:#77d0f0}.w{fill:#176aa0}.x{fill:#02d8fa}.y{fill:#ff8d1f}.z{fill:#a5e3e0}.aa{fill:#8ed6d1}.ab{fill:#99c200}.ac{fill:#00b7e8}.ad{fill:#009dc7}.ae{fill:#ffbc00}.af{fill:#ff9700}.ag{fill:#fcd67d}.ah{fill:#7c5e5e}.ai{fill:#6d8257}.aj{fill:#1a5370}.al{fill:#eda635}.an{fill:#a5bf78}.ao{fill:#a364b2}.ap{fill:#1ddbbb}.aq{fill:#cedc49}.ar{fill:#019a86}.as{fill:#80478e}.at{fill:#643270}.ax{fill:#73cde7}.ay{fill:#f94e26}.az{fill:#fac565}.ba{fill:#80b65e}.bb{fill:#fc4964}.bc{fill:#e42f63}.bd{fill:#bd2453}.be{fill:#018790}.bf{fill:#5f9700}.bg{fill:#367a00}.bh{fill:#c2a280}.bk{fill:#cbac8b}.bl{fill:#aec3ff}.bo{fill:#f1a34f}.br{fill:#f9ddbf}.bu{fill:#163560}.bv{fill:#ffb27d}.bw{fill:#2b478b}.bx{fill:#2a4e96}.ca{fill:#bea285}.cf{fill:#c15e1b}.ci{fill:#2c3a64}.cj{fill:#6877dd}.cl{opacity:.6}.cm{fill:#f3aa6d}</style></defs><path d="M434.596 57.753a2.051 2.051 0 00-3.974.184c-3.991 20.218-16.116 72.9-38.86 102.148-37.03 47.615-58.319 121.873-29.413 157.188.001 0 138.865-37.029 72.247-259.52z" fill="#abcdff"/><path class="b" d="M432.917 86.285c0 .651-.05 1.188-.08 1.767l-.124 1.707-.286 3.408c-.206 2.27-.447 4.536-.688 6.8q-.748 6.8-1.649 13.572c-1.209 9.034-2.662 18.035-4.251 27.012s-3.4 17.916-5.419 26.809-4.173 17.758-6.614 26.548a437.8 437.8 0 01-17.661 51.788c-3.593 8.392-7.406 16.694-11.694 24.758a236.893 236.893 0 01-14.268 23.35.36.36 0 01-.6-.4 264.777 264.777 0 0013.543-23.631c4.133-8.087 7.792-16.406 11.229-24.808s6.528-16.95 9.427-25.557 5.436-17.336 7.925-26.074c4.9-17.5 8.873-35.259 12.35-53.107q2.579-13.393 4.64-26.883 1.046-6.741 1.954-13.5l.847-6.768.389-3.387.176-1.694c.048-.555.11-1.152.132-1.64v-.081a.356.356 0 01.712.016z"/><path d="M362.512 18.229a1.961 1.961 0 00-3.593 1.253c1.855 19.629 5.108 71.254-7.77 104.276-20.969 53.767-20.235 127.673 15.907 152.173.001 0 117.245-71.839-4.544-257.702z" fill="#c9dfff"/><path class="b" d="M368.762 44.851c.179.6.279 1.1.41 1.643l.353 1.6.668 3.2c.431 2.138.829 4.282 1.226 6.426q1.17 6.435 2.193 12.9c1.358 8.615 2.481 17.266 3.474 25.931s1.769 17.358 2.347 26.064 1.018 17.424 1.179 26.151a418.762 418.762 0 01-2.071 52.313c-1.007 8.676-2.24 17.33-3.973 25.894a226.4 226.4 0 01-6.723 25.305.35.35 0 01-.668-.208 253.87 253.87 0 005.966-25.366c1.582-8.543 2.667-17.17 3.526-25.813s1.361-17.324 1.671-26.008.254-17.381.154-26.073c-.275-17.388-1.481-34.753-3.158-52.07q-1.286-12.986-3.075-25.919-.878-6.467-1.889-12.916l-1.068-6.438-.566-3.212-.3-1.6c-.107-.523-.213-1.087-.326-1.539l-.019-.076a.347.347 0 01.669-.183z"/><g class="d"><path class="e" d="M109.532 80.273a1.416 1.416 0 011.591 1.028 57.123 57.123 0 011.062 4.711 1.416 1.416 0 01-1.141 1.646h-.027a1.416 1.416 0 01-1.619-1.146 54.34 54.34 0 00-1.009-4.476 1.416 1.416 0 011-1.737 1.372 1.372 0 01.143-.026zm1.876 12.194a1.455 1.455 0 01.167-.017 1.416 1.416 0 011.475 1.355 57.11 57.11 0 010 4.826 1.416 1.416 0 11-2.83-.12 53.974 53.974 0 000-4.587 1.416 1.416 0 011.188-1.457zm-.855 12.3a1.417 1.417 0 011.619 1.655 56.14 56.14 0 01-1.078 4.707 1.416 1.416 0 01-2.731-.75 55.07 55.07 0 001.024-4.47 1.417 1.417 0 011.166-1.138zm-3.586 11.806a1.417 1.417 0 011.525 1.96 57.98 57.98 0 01-2.1 4.349 1.418 1.418 0 01-2.5-1.341 54.746 54.746 0 002-4.131 1.416 1.416 0 011.075-.832zm-6.126 10.71a1.416 1.416 0 011.369 2.234 57.534 57.534 0 01-3.012 3.773 1.416 1.416 0 11-2.137-1.859c1-1.151 1.965-2.358 2.863-3.586a1.412 1.412 0 01.917-.562zm-8.345 9.087a1.416 1.416 0 011.157 2.466 56.636 56.636 0 01-3.773 3.013 1.417 1.417 0 01-1.672-2.287c1.23-.9 2.436-1.863 3.584-2.863a1.409 1.409 0 01.702-.324zm-50.695 11.6a1.416 1.416 0 01.6.033c1.468.4 2.973.742 4.474 1.016a1.416 1.416 0 01-.508 2.786 56.226 56.226 0 01-4.711-1.07 1.417 1.417 0 01.148-2.765zm40.55-4.592a1.416 1.416 0 01.895 2.646 57.593 57.593 0 01-4.349 2.1 1.416 1.416 0 11-1.119-2.6c1.4-.6 2.788-1.271 4.129-1.99a1.415 1.415 0 01.442-.151zm-28.358 6.479a1.433 1.433 0 01.284-.018c1.521.062 3.065.059 4.589-.009a1.416 1.416 0 01.125 2.83 57.18 57.18 0 01-4.829.009 1.416 1.416 0 01-.17-2.813zm16.9-1.913a1.416 1.416 0 01.6 2.765 56.647 56.647 0 01-4.708 1.07l-.03.005a1.416 1.416 0 01-.48-2.791c1.5-.275 3-.617 4.472-1.018.047-.009.094-.02.147-.027z"/><path d="M32.481 144.499a1.41 1.41 0 01.837.121c.658.316 1.334.624 2.009.915a1.416 1.416 0 11-1.121 2.6 56.082 56.082 0 01-2.113-.961 1.416 1.416 0 01.388-2.675z" fill="#bdd0fb"/></g><g class="d"><path class="e" d="M3.945 112.096a1.417 1.417 0 011.569.954c.229.693.476 1.393.735 2.081a1.417 1.417 0 11-2.651 1 57.641 57.641 0 01-.774-2.191 1.416 1.416 0 011.121-1.842zM47.462 40.318q.965-.156 1.942-.28a1.416 1.416 0 11.357 2.81c-1.5.191-3 .443-4.453.752a1.416 1.416 0 01-.588-2.771 57.845 57.845 0 012.742-.511zm9.407-.713a1.378 1.378 0 01.241-.018c1.58.014 3.177.1 4.746.243a1.416 1.416 0 11-.264 2.82 54.666 54.666 0 00-4.509-.231 1.416 1.416 0 01-.214-2.814zm-19.313 3.274a1.416 1.416 0 01.7 2.731 53.158 53.158 0 00-4.176 1.709 1.416 1.416 0 01-1.183-2.574 56.3 56.3 0 014.4-1.8 1.451 1.451 0 01.258-.067zm31.368-1.828a1.417 1.417 0 01.549.02c1.537.361 3.077.792 4.577 1.281a1.416 1.416 0 11-.878 2.692 53.513 53.513 0 00-4.346-1.216 1.417 1.417 0 01.1-2.777zm-42.259 7.181a1.417 1.417 0 01.988 2.592c-1.261.8-2.5 1.674-3.7 2.585a1.416 1.416 0 11-1.719-2.251 56.559 56.559 0 013.893-2.722 1.41 1.41 0 01.54-.202zm-9.449 7.615a1.416 1.416 0 011.231 2.4 54.806 54.806 0 00-3.046 3.331 1.416 1.416 0 11-2.168-1.823 57.103 57.103 0 013.206-3.505 1.408 1.408 0 01.779-.399zm-7.565 9.494a1.416 1.416 0 011.423 2.154 54.471 54.471 0 00-2.248 3.915 1.416 1.416 0 11-2.513-1.307 56.826 56.826 0 012.366-4.12 1.414 1.414 0 01.974-.64zM4.338 76.258a1.417 1.417 0 011.558 1.874 54.784 54.784 0 00-1.335 4.312 1.416 1.416 0 11-2.739-.722 55.77 55.77 0 011.406-4.541 1.416 1.416 0 011.112-.921zM1.55 88.08a1.419 1.419 0 011.632 1.568c-.179 1.486-.3 3-.352 4.5a1.416 1.416 0 11-2.831-.1 56.27 56.27 0 01.371-4.735 1.418 1.418 0 011.182-1.232zm-.123 12.137l.087-.011a1.416 1.416 0 011.549 1.269c.109 1.1.254 2.206.429 3.294l.2 1.176a1.416 1.416 0 01-1.137 1.649 1.4 1.4 0 01-1.649-1.136q-.113-.616-.214-1.238a56.607 56.607 0 01-.451-3.466 1.416 1.416 0 011.183-1.536zM80.398 45.136a1.41 1.41 0 01.844.124c.69.335 1.385.691 2.067 1.059a1.416 1.416 0 11-1.342 2.494 54.304 54.304 0 00-1.964-1.006 1.416 1.416 0 01.395-2.672z"/></g><path class="e" d="M81.128 61.657a.662.662 0 00-.764-.082l-7.021 3.95a35.093 35.093 0 00-10.741-3.727l-3.07-7.443a.661.661 0 00-.651-.408l-9.646.571a.663.663 0 00-.6.482l-2.17 7.753a35.1 35.1 0 00-10.227 4.968L28.8 64.627a.662.662 0 00-.749.171l-6.417 7.225a.661.661 0 00-.082.764l3.95 7.021a35.091 35.091 0 00-3.726 10.741l-7.443 3.07a.662.662 0 00-.408.651l.571 9.646a.662.662 0 00.483.6l7.753 2.17a35.086 35.086 0 004.967 10.227l-3.094 7.438a.662.662 0 00.172.749l7.225 6.417a.662.662 0 00.764.082l7.021-3.95a35.093 35.093 0 0010.742 3.727l3.07 7.443a.662.662 0 00.651.408l9.646-.571a.662.662 0 00.6-.482l2.17-7.753a35.081 35.081 0 0010.227-4.968l7.438 3.094a.662.662 0 00.749-.172l6.417-7.225a.662.662 0 00.082-.764l-3.95-7.021a35.1 35.1 0 003.727-10.742l7.443-3.07a.662.662 0 00.408-.651l-.571-9.646a.662.662 0 00-.482-.6l-7.753-2.17a35.091 35.091 0 00-4.973-10.224l3.1-7.434a.661.661 0 00-.171-.749z"/><path class="g" d="M55.024 86.997a9.718 9.718 0 11-1.388.33 9.728 9.728 0 011.388-.33zm2.714 16.947a7.592 7.592 0 001.075-.255 7.424 7.424 0 10-1.075.255z"/><path class="g" d="M52.588 73.178a24.378 24.378 0 012.44-.268q.388-.023.778-.034a24.024 24.024 0 013.82.2l.052.007.146.02.284.042a.567.567 0 01.473.469.581.581 0 010 .178.567.567 0 01-.646.473 22.776 22.776 0 00-23.38 11.445 22.611 22.611 0 00-2.826 12.384 23.089 23.089 0 00.256 2.328 22.752 22.752 0 1041.257-16.487.559.559 0 01-.091-.229.566.566 0 011.027-.409 23.886 23.886 0 11-43.311 17.308 24.385 24.385 0 01-.269-2.443 23.888 23.888 0 0119.99-24.984z"/><g class="d"><path class="e" d="M151.294 35.726a.874.874 0 01.928.487c.32.67.625 1.359.9 2.048a.875.875 0 11-1.621.658 34.933 34.933 0 00-.862-1.952.874.874 0 01.651-1.24zM153.629 42.038a.874.874 0 01.983.637 37.91 37.91 0 01.806 3.763c.043.266.083.533.121.8a.905.905 0 01-.745.988.875.875 0 01-.987-.745q-.054-.385-.115-.766a36.357 36.357 0 00-.768-3.589.875.875 0 01.618-1.072c.024-.005.053-.011.087-.016zm1.257 8.994a.935.935 0 01.125-.011.876.876 0 01.89.86 37.917 37.917 0 01-.206 4.651.875.875 0 11-1.74-.185 36.206 36.206 0 00.2-4.437.875.875 0 01.727-.877zm-.961 9.031a.875.875 0 01.99 1.064 37.7 37.7 0 01-1.343 4.461.875.875 0 01-1.643-.604 35.91 35.91 0 001.281-4.254.876.876 0 01.711-.666zm-3.152 8.519a.874.874 0 01.915 1.266 37.853 37.853 0 01-2.393 4 .875.875 0 01-1.442-.99 36.074 36.074 0 002.282-3.81.875.875 0 01.633-.464zm-5.137 7.49a.875.875 0 01.8 1.443 38.237 38.237 0 01-3.29 3.292.875.875 0 11-1.16-1.31 36.422 36.422 0 003.139-3.141.872.872 0 01.504-.283zm-6.8 6.016a.875.875 0 01.635 1.585 37.656 37.656 0 01-3.993 2.39.875.875 0 01-.8-1.554 35.873 35.873 0 003.807-2.278.863.863 0 01.344-.147zm-8.061 4.169a.875.875 0 01.441 1.684 37.875 37.875 0 01-4.46 1.338.875.875 0 01-.4-1.7 36.007 36.007 0 004.254-1.275.876.876 0 01.163-.046zm-13.389 2.274a.844.844 0 01.154-.011 36.208 36.208 0 003.86-.147c.195-.017.386-.035.577-.057a.875.875 0 01.964.775.866.866 0 01-.775.964c-.2.022-.406.042-.611.06a37.953 37.953 0 01-4.042.153.875.875 0 01-.127-1.738z"/></g><g class="d"><path class="e" d="M111.598 15.284a.875.875 0 01.29 1.725 36.189 36.189 0 00-4.249 1.01.875.875 0 11-.507-1.674 38.057 38.057 0 014.455-1.059zm4.447-.5a.868.868 0 01.094-.01 38.258 38.258 0 014.58.032.875.875 0 01-.117 1.746 36.573 36.573 0 00-4.371-.031.875.875 0 01-.187-1.737zm-12.994 3.1a.875.875 0 01.494 1.663 36.27 36.27 0 00-3.88 2.009.875.875 0 01-.9-1.5 37.957 37.957 0 014.068-2.105.878.878 0 01.215-.076zm21.909-2.491a.879.879 0 01.3 0 37.508 37.508 0 014.439 1.138.875.875 0 11-.537 1.665 35.9 35.9 0 00-4.233-1.084.875.875 0 01.025-1.722zm-29.576 7.071a.875.875 0 01.677 1.555 36 36 0 00-3.282 2.882.875.875 0 01-1.232-1.243 38.138 38.138 0 013.441-3.022.875.875 0 01.393-.18zM89.04 28.75a.874.874 0 01.826 1.406 36.607 36.607 0 00-2.5 3.584.875.875 0 01-1.493-.912 38.216 38.216 0 012.62-3.758.87.87 0 01.544-.328zm-4.656 7.625a.865.865 0 01.5.068.874.874 0 01.434 1.158 35.818 35.818 0 00-1.566 4.079.875.875 0 01-1.668-.527 37.773 37.773 0 011.642-4.278.874.874 0 01.655-.508zM133.499 18.142a.871.871 0 01.507.07c.679.315 1.352.652 2 1a.875.875 0 11-.829 1.541 36.068 36.068 0 00-1.907-.955.875.875 0 01.23-1.657z"/></g><path class="e" d="M134.583 29.413a.443.443 0 00-.512-.055l-4.7 2.643a23.488 23.488 0 00-7.188-2.493l-2.054-4.98a.443.443 0 00-.436-.273l-6.455.382a.443.443 0 00-.4.323l-1.452 5.188a23.475 23.475 0 00-6.843 3.324l-4.978-2.07a.443.443 0 00-.5.115l-4.294 4.834a.443.443 0 00-.055.511l2.643 4.7a23.487 23.487 0 00-2.493 7.188l-4.981 2.054a.444.444 0 00-.273.435l.382 6.455a.442.442 0 00.323.4l5.188 1.452a23.477 23.477 0 003.324 6.844l-2.071 4.977a.443.443 0 00.115.5l4.834 4.294a.443.443 0 00.511.055l4.7-2.643a23.481 23.481 0 007.188 2.494l2.054 4.98a.442.442 0 00.435.273l6.455-.382a.442.442 0 00.4-.323l1.453-5.188a23.481 23.481 0 006.843-3.324l4.977 2.071a.442.442 0 00.5-.115l4.294-4.834a.442.442 0 00.055-.511l-2.643-4.7a23.481 23.481 0 002.494-7.188l4.98-2.054a.443.443 0 00.273-.435l-.382-6.455a.443.443 0 00-.323-.4l-5.188-1.453a23.471 23.471 0 00-3.324-6.843l2.071-4.977a.443.443 0 00-.115-.5z"/><path d="M117.104 46.251a6.632 6.632 0 11-.954.227 6.761 6.761 0 01.954-.227zm1.814 11.341a4.868 4.868 0 003.867-6.274 4.867 4.867 0 00-6.108-3.172 4.867 4.867 0 002.241 9.446z" opacity=".56" fill="#bdd0fb"/><path class="g" d="M115.424 36.63q.819-.132 1.665-.183a16.578 16.578 0 013.355.141l.149.023a.875.875 0 01.731.724.886.886 0 010 .274.876.876 0 01-1 .731 14.777 14.777 0 00-3.133-.146l-.172.011a14.584 14.584 0 00-6.853 2.249 14.811 14.811 0 00-3.027 2.561l-.022.024-.067.075a14.632 14.632 0 00-3.689 10.648 14.92 14.92 0 00.165 1.506 14.729 14.729 0 1026.709-10.673.857.857 0 01-.141-.353.875.875 0 011.586-.632 16.479 16.479 0 11-29.881 11.941 16.914 16.914 0 01-.185-1.685 16.5 16.5 0 0113.81-17.236z"/><g transform="translate(29.348 86.295)"><path class="i" d="M125.738 260.967c-.622.127-.9.858-1.248 2.068l-1.645 6.165c0 .694.421 1.335.67 1.335 0 0 128.2.23 129.868.23.382-.174.348-.313.174-1.043-.843-3.012-1.905-6.687-1.905-6.687-.564-1.732-.773-1.628-1.248-2.068a1.8 1.8 0 00-1.115-.44s-122.365.22-123.551.44z"/><path class="j" d="M143.813 221.651h89.6l7.734 42.376h-105.46z"/><path d="M241.102 263.812l-1.9-6.569z" fill="#1a4a92"/><rect class="l" width="376.894" height="224.364" rx="12"/><rect width="366.551" height="212.911" rx="6" transform="translate(5.27 5.693)" fill="url(#d)"/></g><path d="M463.785 356.901H29.348v-.366h434.437z" fill="#2b2f7f"/><g><path class="o" d="M337.361 303.676H138.943V132.479h198.418z"/><path class="p" d="M333.814 283.946h-99.1V136.52h99.1z"/><path class="o" d="M337.361 288.176h-99.063v-4.041h99.063zM337.361 257.303h-99.063v-4.041h99.063zM337.361 223.817h-99.063v-4.05h99.063zM337.215 191.666h-99.063v-4.115h99.063zM337.361 159.661h-99.063v-4.001h99.063z"/><path class="q" d="M333.814 303.681h-100.54v-15.235h100.54z"/><path class="r" d="M288.675 155.789h-13.256v-8.304h13.256zM274.226 155.789H260.97v-8.304h13.256zM259.778 155.789h-13.256v-8.304h13.256zM246.522 138.89h13.256v8.304h-13.256zM260.97 138.89h13.256v8.304H260.97zM275.419 138.89h13.256v8.304h-13.256z"/><path class="s" d="M327.046 264.825h-2.132v-.402h2.132zM327.046 264.331h-2.132v-.335h2.132z"/><path class="t" d="M325.985 268.063a3.486 3.486 0 013.486 3.486v11.792a.639.639 0 01-.639.639h-1.2a.482.482 0 10-.965 0h-1.359a.483.483 0 10-.965 0h-1.2a.639.639 0 01-.639-.639v-11.792a3.486 3.486 0 013.481-3.486z"/><path class="t" d="M324.271 269.596h3.417l-.643-4.625h-2.13z"/><path class="t" d="M326.984 264.994h-2.009a.119.119 0 01-.119-.119.119.119 0 01.119-.119h2.009a.119.119 0 01.119.119.119.119 0 01-.119.119zM326.984 264.025h-2.009a.119.119 0 01-.119-.119.119.119 0 01.119-.119h2.009a.119.119 0 01.119.119.119.119 0 01-.119.119z"/><path class="u" d="M326.984 264.465h-2.009a.119.119 0 01-.119-.119.119.119 0 01.119-.119h2.009a.119.119 0 01.119.119.119.119 0 01-.119.119z"/><path class="s" d="M318.946 264.825h-2.132v-.402h2.132zM318.946 264.331h-2.132v-.335h2.132z"/><path class="t" d="M317.881 268.063a3.486 3.486 0 013.486 3.486v11.792a.639.639 0 01-.639.639h-1.2a.483.483 0 00-.965 0h-1.358a.483.483 0 10-.965 0h-1.2a.639.639 0 01-.639-.639v-11.792a3.486 3.486 0 013.48-3.486z"/><path class="t" d="M316.172 269.596h3.417l-.643-4.625h-2.131z"/><path class="t" d="M318.885 264.994h-2.009a.119.119 0 01-.119-.119.119.119 0 01.119-.119h2.009a.119.119 0 01.119.119.119.119 0 01-.119.119zM318.885 264.025h-2.009a.119.119 0 01-.119-.119.119.119 0 01.119-.119h2.009a.119.119 0 01.119.119.119.119 0 01-.119.119z"/><path class="u" d="M318.885 264.465h-2.009a.119.119 0 01-.119-.119.119.119 0 01.119-.119h2.009a.119.119 0 01.119.119.119.119 0 01-.119.119z"/><path class="s" d="M310.836 264.825h-2.132v-.402h2.132zM310.836 264.331h-2.132v-.335h2.132z"/><path class="t" d="M309.77 268.063a3.486 3.486 0 013.487 3.486v11.792a.639.639 0 01-.639.639h-1.2a.483.483 0 10-.965 0h-1.359a.482.482 0 10-.965 0h-1.2a.639.639 0 01-.639-.639v-11.792a3.486 3.486 0 013.48-3.486z"/><path class="t" d="M308.061 269.596h3.417l-.643-4.625h-2.131z"/><path class="t" d="M310.775 264.994h-2.009a.119.119 0 01-.119-.119.119.119 0 01.119-.119h2.009a.119.119 0 01.119.119.119.119 0 01-.119.119zM310.775 264.025h-2.009a.119.119 0 01-.119-.119.119.119 0 01.119-.119h2.009a.119.119 0 01.119.119.119.119 0 01-.119.119z"/><path class="u" d="M310.775 264.465h-2.009a.119.119 0 01-.119-.119.119.119 0 01.119-.119h2.009a.119.119 0 01.119.119.119.119 0 01-.119.119z"/><path class="s" d="M302.727 264.825h-2.132v-.402h2.132zM302.727 264.331h-2.132v-.335h2.132z"/><path class="t" d="M301.657 268.063a3.486 3.486 0 013.486 3.486v11.792a.639.639 0 01-.639.639h-1.2a.483.483 0 10-.965 0h-1.359a.483.483 0 10-.965 0h-1.2a.639.639 0 01-.639-.639v-11.792a3.486 3.486 0 013.481-3.486z"/><path class="t" d="M299.953 269.596h3.417l-.643-4.625h-2.134z"/><path class="t" d="M302.666 264.994h-2.009a.119.119 0 01-.119-.119.119.119 0 01.119-.119h2.009a.119.119 0 01.119.119.119.119 0 01-.119.119zM302.666 264.025h-2.009a.119.119 0 01-.119-.119.119.119 0 01.119-.119h2.009a.119.119 0 01.119.119.119.119 0 01-.119.119z"/><path class="u" d="M302.666 264.465h-2.009a.119.119 0 01-.119-.119.119.119 0 01.119-.119h2.009a.119.119 0 01.119.119.119.119 0 01-.119.119z"/><g><path class="s" d="M294.618 264.825h-2.132v-.402h2.132zM294.618 264.331h-2.132v-.335h2.132z"/><path class="t" d="M293.553 268.063a3.486 3.486 0 013.486 3.486v11.792a.639.639 0 01-.639.639h-1.2a.483.483 0 10-.965 0h-1.359a.483.483 0 10-.965 0h-1.2a.639.639 0 01-.639-.639v-11.792a3.486 3.486 0 013.481-3.486z"/><path class="t" d="M291.844 269.596h3.417l-.643-4.625h-2.13z"/><path class="t" d="M294.557 264.994h-2.009a.119.119 0 01-.119-.119.119.119 0 01.119-.119h2.009a.119.119 0 01.119.119.119.119 0 01-.119.119zM294.557 264.025h-2.009a.119.119 0 01-.119-.119.119.119 0 01.119-.119h2.009a.119.119 0 01.119.119.119.119 0 01-.119.119z"/><path class="u" d="M294.557 264.465h-2.009a.119.119 0 01-.119-.119.119.119 0 01.119-.119h2.009a.119.119 0 01.119.119.119.119 0 01-.119.119z"/></g><g><path class="v" d="M330.252 155.698h-12.267v-7.685h12.267z"/><path class="v" d="M317.985 140.373h12.267v7.685h-12.267z"/></g><g><path class="v" d="M317.335 155.698h-12.267v-7.685h12.267z"/><path class="v" d="M305.068 140.373h12.267v7.685h-12.267z"/></g><g><path class="v" d="M304.418 155.698h-12.267v-7.685h12.267z"/><path class="v" d="M292.151 140.373h12.267v7.685h-12.267z"/></g><g transform="translate(275.604 225.675)"><path class="w" d="M6.1 1.731H3.244v-.538H6.1zM6.1 1.07H3.244V.621H6.1z"/><path class="x" d="M4.671 6.071a4.671 4.671 0 014.672 4.671v15.8a.856.856 0 01-.856.856H6.875a.647.647 0 10-1.293 0H3.761a.647.647 0 10-1.294 0H.856A.856.856 0 010 26.542v-15.8a4.671 4.671 0 014.671-4.671z"/><path class="x" d="M2.382 8.124h4.579l-.863-6.2H3.243z"/><rect class="x" width="3.01" height=".319" rx=".159" transform="rotate(-180 3.088 .979)"/><rect class="x" width="3.01" height=".318" rx=".159" transform="rotate(-180 3.088 .33)"/><rect class="x" width="3.01" height=".319" rx=".159" transform="rotate(-180 3.088 .624)"/><path class="y" d="M6.235 1.64H3.108V0h3.127z"/></g><g transform="translate(265.176 225.675)"><path class="w" d="M6.099 1.731H3.243v-.538h2.856zM6.099 1.07H3.243V.621h2.856z"/><path class="x" d="M4.671 6.071a4.672 4.672 0 014.671 4.671v15.8a.856.856 0 01-.856.856H6.875a.647.647 0 10-1.293 0H3.761a.647.647 0 10-1.293 0H.856a.856.856 0 01-.855-.856v-15.8a4.671 4.671 0 014.67-4.671z"/><path class="x" d="M2.381 8.124H6.96l-.862-6.2H3.243z"/><rect class="x" width="3.01" height=".319" rx=".159" transform="rotate(-180 3.088 .979)"/><rect class="x" width="3.01" height=".318" rx=".159" transform="rotate(-180 3.088 .33)"/><rect class="x" width="3.01" height=".319" rx=".159" transform="rotate(-180 3.088 .624)"/><path class="y" d="M6.234 1.64H3.107V0h3.127z"/></g><g transform="translate(254.747 225.675)"><path class="w" d="M6.099 1.731H3.243v-.538h2.856zM6.099 1.07H3.243V.621h2.856z"/><path class="x" d="M4.671 6.071a4.671 4.671 0 014.671 4.671v15.8a.856.856 0 01-.856.856H6.875a.647.647 0 10-1.294 0H3.76a.647.647 0 10-1.293 0H.856A.856.856 0 010 26.542v-15.8a4.671 4.671 0 014.671-4.671z"/><path class="x" d="M2.381 8.124H6.96l-.862-6.2H3.243z"/><rect class="x" width="3.01" height=".319" rx=".159" transform="rotate(-180 3.088 .979)"/><rect class="x" width="3.01" height=".318" rx=".159" transform="rotate(-180 3.088 .33)"/><rect class="x" width="3.01" height=".319" rx=".159" transform="rotate(-180 3.088 .624)"/><path class="y" d="M6.234 1.64H3.108V0h3.126z"/></g><g transform="translate(244.319 225.675)"><path class="w" d="M6.099 1.731H3.243v-.538h2.856zM6.099 1.07H3.243V.621h2.856z"/><path class="x" d="M4.671 6.071a4.671 4.671 0 014.671 4.671v15.8a.856.856 0 01-.855.856H6.875a.647.647 0 10-1.293 0H3.761a.647.647 0 10-1.294 0H.856A.856.856 0 010 26.542v-15.8a4.671 4.671 0 014.671-4.671z"/><path class="x" d="M2.382 8.124h4.579l-.862-6.2H3.245z"/><rect class="x" width="3.01" height=".319" rx=".159" transform="rotate(-180 3.088 .979)"/><rect class="x" width="3.01" height=".318" rx=".159" transform="rotate(-180 3.088 .33)"/><rect class="x" width="3.01" height=".319" rx=".159" transform="rotate(-180 3.088 .624)"/><path class="y" d="M6.235 1.64H3.109V0h3.126z"/></g><g><path class="z" d="M246.455 167.242v-.368a.414.414 0 01.414-.415h4.493a.414.414 0 01.414.415v.368a4.1 4.1 0 00.823 2.462 4.1 4.1 0 01.822 2.462v14.544a1.057 1.057 0 01-1.058 1.058h-6.5a1.057 1.057 0 01-1.057-1.058v-14.544a4.1 4.1 0 01.822-2.462 4.1 4.1 0 00.827-2.462z"/><path class="aa" d="M251.361 166.46h-4.485v-2.666a2.036 2.036 0 012.036-2.034h.413a2.036 2.036 0 012.036 2.034v2.666z"/></g><g><path class="z" d="M256.758 167.242v-.368a.415.415 0 01.415-.415h4.492a.415.415 0 01.415.415v.368a4.094 4.094 0 00.822 2.462 4.1 4.1 0 01.822 2.462v14.544a1.057 1.057 0 01-1.057 1.058h-6.5a1.057 1.057 0 01-1.057-1.058v-14.544a4.1 4.1 0 01.823-2.462 4.1 4.1 0 00.825-2.462z"/><path class="aa" d="M261.665 166.46h-4.485v-2.666a2.036 2.036 0 012.036-2.034h.413a2.036 2.036 0 012.036 2.034v2.666z"/></g><g><path class="z" d="M267.057 167.242v-.368a.415.415 0 01.415-.415h4.492a.415.415 0 01.415.415v.368a4.1 4.1 0 00.822 2.462 4.094 4.094 0 01.823 2.462v14.544a1.057 1.057 0 01-1.058 1.058h-6.5a1.057 1.057 0 01-1.057-1.058v-14.544a4.094 4.094 0 01.822-2.462 4.1 4.1 0 00.826-2.462z"/><path class="aa" d="M271.966 166.46h-4.485v-2.666a2.036 2.036 0 012.036-2.034h.413a2.036 2.036 0 012.036 2.034v2.666z"/></g><g><path class="z" d="M277.362 167.242v-.368a.415.415 0 01.415-.415h4.492a.415.415 0 01.415.415v.368a4.1 4.1 0 00.823 2.462 4.1 4.1 0 01.822 2.462v14.544a1.057 1.057 0 01-1.057 1.058h-6.5a1.057 1.057 0 01-1.057-1.058v-14.544a4.1 4.1 0 01.822-2.462 4.1 4.1 0 00.825-2.462z"/><path class="aa" d="M282.268 166.46h-4.485v-2.666a2.036 2.036 0 012.036-2.034h.413a2.036 2.036 0 012.036 2.034v2.666z"/></g><g><path class="z" d="M287.664 167.242v-.368a.414.414 0 01.414-.415h4.493a.415.415 0 01.415.415v.368a4.1 4.1 0 00.822 2.462 4.1 4.1 0 01.823 2.462v14.544a1.057 1.057 0 01-1.057 1.058h-6.5a1.058 1.058 0 01-1.058-1.058v-14.544a4.1 4.1 0 01.822-2.462 4.094 4.094 0 00.826-2.462z"/><path class="aa" d="M292.571 166.46h-4.485v-2.666a2.036 2.036 0 012.036-2.034h.413a2.036 2.036 0 012.036 2.034v2.666z"/></g><g><path class="ab" d="M294.163 232.632v-.364a.415.415 0 01.415-.415h4.492a.415.415 0 01.415.415v.368a4.094 4.094 0 00.823 2.462 4.093 4.093 0 01.822 2.462v14.544a1.057 1.057 0 01-1.057 1.057h-6.5a1.058 1.058 0 01-1.057-1.057v-14.548a4.1 4.1 0 01.823-2.462 4.1 4.1 0 00.824-2.462z"/><path class="ac" d="M299.07 231.85h-4.485v-2.666a2.036 2.036 0 012.036-2.034h.413a2.036 2.036 0 012.036 2.034v2.666z"/><path class="ad" d="M299.07 231.85h-.234v-.934h.234zM294.819 231.85h-.234v-.934h.234zM295.292 231.85h-.234v-.934h.234zM295.764 231.85h-.234v-.934h.234zM296.236 231.85h-.234v-.934h.234zM296.709 231.85h-.234v-.934h.234zM297.181 231.85h-.234v-.934h.234zM297.653 231.85h-.234v-.934h.234zM298.126 231.85h-.234v-.934h.234zM298.598 231.85h-.234v-.934h.234z"/><g><path class="ab" d="M304.466 232.632v-.364a.415.415 0 01.415-.415h4.492a.415.415 0 01.415.415v.368a4.1 4.1 0 00.823 2.462 4.1 4.1 0 01.823 2.462v14.544a1.058 1.058 0 01-1.057 1.057h-6.5a1.057 1.057 0 01-1.057-1.057v-14.548a4.092 4.092 0 01.822-2.462 4.1 4.1 0 00.824-2.462z"/><path class="ac" d="M309.372 231.85h-4.485v-2.666a2.036 2.036 0 012.036-2.034h.413a2.036 2.036 0 012.036 2.034v2.666z"/><path class="ad" d="M309.372 231.85h-.234v-.934h.234zM305.121 231.85h-.234v-.934h.234zM305.593 231.85h-.234v-.934h.234zM306.066 231.85h-.234v-.934h.234zM306.538 231.85h-.234v-.934h.234zM307.011 231.85h-.234v-.934h.234zM307.483 231.85h-.234v-.934h.234zM307.955 231.85h-.234v-.934h.234zM308.428 231.85h-.234v-.934h.234zM308.9 231.85h-.234v-.934h.234z"/></g><g><path class="ab" d="M314.768 232.632v-.364a.414.414 0 01.415-.415h4.492a.414.414 0 01.414.415v.368a4.1 4.1 0 00.823 2.462 4.1 4.1 0 01.822 2.462v14.544a1.057 1.057 0 01-1.057 1.057h-6.5a1.057 1.057 0 01-1.057-1.057v-14.548a4.1 4.1 0 01.822-2.462 4.1 4.1 0 00.826-2.462z"/><path class="ac" d="M319.674 231.85h-4.485v-2.666a2.036 2.036 0 012.036-2.034h.413a2.036 2.036 0 012.036 2.034v2.666z"/><path class="ad" d="M319.674 231.85h-.234v-.934h.234zM315.423 231.85h-.234v-.934h.234zM315.895 231.85h-.234v-.934h.234zM316.368 231.85h-.234v-.934h.234zM316.84 231.85h-.234v-.934h.234zM317.312 231.85h-.234v-.934h.234zM317.785 231.85h-.234v-.934h.234zM318.257 231.85h-.234v-.934h.234zM318.73 231.85h-.234v-.934h.234zM319.202 231.85h-.234v-.934h.234z"/></g><g><path class="ab" d="M325.07 232.632v-.364a.415.415 0 01.415-.415h4.492a.415.415 0 01.415.415v.368a4.094 4.094 0 00.823 2.462 4.094 4.094 0 01.822 2.462v14.544a1.057 1.057 0 01-1.057 1.057h-6.5a1.057 1.057 0 01-1.057-1.057v-14.548a4.1 4.1 0 01.823-2.462 4.1 4.1 0 00.824-2.462z"/><path class="ac" d="M329.977 231.85h-4.485v-2.666a2.036 2.036 0 012.036-2.034h.413a2.036 2.036 0 012.036 2.034v2.666z"/><path class="ad" d="M329.977 231.85h-.234v-.934h.234zM325.726 231.85h-.234v-.934h.234zM326.199 231.85h-.234v-.934h.234zM326.671 231.85h-.234v-.934h.234zM327.143 231.85h-.234v-.934h.234zM327.616 231.85h-.234v-.934h.234zM328.088 231.85h-.234v-.934h.234zM328.56 231.85h-.234v-.934h.234zM329.033 231.85h-.234v-.934h.234zM329.505 231.85h-.234v-.934h.234z"/></g></g><g><path class="ae" d="M323.916 204.741h4.73l-1-10.9h-2.738z"/><path class="af" d="M327.685 193.748h-2.812v-.331h2.812z"/><path class="ae" d="M329.91 219.856h-7.263a.747.747 0 01-.747-.747v-14.073a4.379 4.379 0 014.378-4.38 4.379 4.379 0 014.379 4.38v14.073a.747.747 0 01-.747.747z"/><path class="ae" d="M329.91 219.856h-7.263a.747.747 0 01-.747-.747v-14.073a4.379 4.379 0 014.378-4.38 4.379 4.379 0 014.379 4.38v14.073a.747.747 0 01-.747.747z"/><path class="ae" d="M321.901 205.035v14.079a.746.746 0 00.747.747h7.262a.746.746 0 00.747-.747v-14.079a4.385 4.385 0 00-2.475-3.946 4.3 4.3 0 00-1.723-.428h-.179a4.377 4.377 0 00-4.379 4.379zM324.873 194.088h2.812a.2.2 0 00.2-.2.2.2 0 00-.2-.2h-2.812a.2.2 0 00-.2.2.2.2 0 00.2.2zM324.873 193.468h2.812a.2.2 0 00.2-.2.2.2 0 00-.2-.2h-2.812a.2.2 0 00-.2.2.2.2 0 00.2.2z"/><path class="af" d="M324.873 193.381h2.812a.193.193 0 00.187-.152.178.178 0 01.009.044.2.2 0 01-.2.2h-2.808a.2.2 0 01-.2-.2.19.19 0 01.009-.044.192.192 0 00.191.152zM324.873 194h2.812a.193.193 0 00.187-.152.188.188 0 01.009.044.2.2 0 01-.2.2h-2.808a.2.2 0 01-.2-.2.2.2 0 01.009-.044.192.192 0 00.191.152zM329.91 219.293h-7.263a6.426 6.426 0 017.263 0z"/><path class="ag" d="M326.74 193.273h.96a.066.066 0 00.067-.067.066.066 0 00-.067-.066h-.96a.067.067 0 00-.066.066.066.066 0 00.066.067zM326.421 193.906h1.281a.066.066 0 00.066-.066.066.066 0 00-.066-.067h-1.281a.067.067 0 00-.067.067.067.067 0 00.067.066z"/></g><g><path class="ae" d="M313.895 204.741h4.73l-1-10.9h-2.738z"/><path class="af" d="M317.666 193.748h-2.812v-.331h2.812z"/><path class="ae" d="M312.628 219.856h7.263a.747.747 0 00.747-.747v-14.073a4.379 4.379 0 00-4.379-4.379 4.379 4.379 0 00-4.379 4.379v14.077a.747.747 0 00.748.743z"/><path class="ae" d="M312.628 219.856h7.263a.747.747 0 00.747-.747v-14.073a4.379 4.379 0 00-4.379-4.379 4.379 4.379 0 00-4.379 4.379v14.077a.747.747 0 00.748.743z"/><path class="ae" d="M311.882 205.035v14.079a.746.746 0 00.747.747h7.262a.746.746 0 00.747-.747v-14.079a4.385 4.385 0 00-2.475-3.946 4.3 4.3 0 00-1.723-.428h-.179a4.378 4.378 0 00-4.379 4.379zM314.853 194.088h2.812a.2.2 0 00.2-.2.2.2 0 00-.2-.2h-2.812a.2.2 0 00-.2.2.2.2 0 00.2.2zM314.853 193.468h2.812a.2.2 0 00.2-.2.2.2 0 00-.2-.2h-2.812a.2.2 0 00-.2.2.2.2 0 00.2.2z"/><path class="af" d="M314.853 193.381h2.812a.193.193 0 00.187-.152.19.19 0 01.009.044.2.2 0 01-.2.2h-2.812a.182.182 0 01-.187-.239.193.193 0 00.191.147zM314.853 194h2.812a.193.193 0 00.187-.152.2.2 0 01.009.044.2.2 0 01-.2.2h-2.812a.2.2 0 01-.2-.2.207.207 0 01.009-.044.193.193 0 00.195.152zM319.887 219.293h-7.263a6.426 6.426 0 017.263 0z"/><path class="ag" d="M316.722 193.273h.96a.066.066 0 00.066-.067.066.066 0 00-.066-.066h-.96a.066.066 0 00-.067.066.066.066 0 00.067.067zM316.4 193.906h1.281a.066.066 0 00.067-.066.066.066 0 00-.067-.067H316.4a.067.067 0 00-.067.067.067.067 0 00.067.066z"/></g><g><path class="ae" d="M303.876 204.741h4.729l-1-10.9h-2.738z"/><path class="af" d="M307.647 193.748h-2.812v-.331h2.812z"/><path class="ae" d="M302.609 219.856h7.263a.747.747 0 00.747-.747v-14.073a4.379 4.379 0 00-4.379-4.379 4.379 4.379 0 00-4.379 4.379v14.077a.747.747 0 00.748.743z"/><path class="ae" d="M302.609 219.856h7.263a.747.747 0 00.747-.747v-14.073a4.379 4.379 0 00-4.379-4.379 4.379 4.379 0 00-4.379 4.379v14.077a.747.747 0 00.748.743z"/><path class="ae" d="M301.863 205.035v14.079a.746.746 0 00.747.747h7.262a.745.745 0 00.747-.747v-14.079a4.385 4.385 0 00-2.474-3.946 4.3 4.3 0 00-1.723-.428h-.179a4.377 4.377 0 00-4.379 4.379zM304.835 194.088h2.812a.2.2 0 00.2-.2.2.2 0 00-.2-.2h-2.812a.2.2 0 00-.2.2.2.2 0 00.2.2zM304.835 193.468h2.812a.2.2 0 00.2-.2.2.2 0 00-.2-.2h-2.812a.2.2 0 00-.2.2.2.2 0 00.2.2z"/><path class="af" d="M304.835 193.381h2.812a.193.193 0 00.187-.152.19.19 0 01.009.044.2.2 0 01-.2.2h-2.812a.2.2 0 01-.2-.2.2.2 0 01.009-.044.193.193 0 00.195.152zM304.835 194h2.812a.193.193 0 00.187-.152.2.2 0 01.009.044.2.2 0 01-.2.2h-2.812a.2.2 0 01-.2-.2.215.215 0 01.009-.044.193.193 0 00.195.152zM309.872 219.293h-7.263a6.426 6.426 0 017.263 0z"/><path class="ag" d="M306.702 193.273h.961a.066.066 0 00.067-.067.066.066 0 00-.067-.066h-.961a.067.067 0 00-.066.066.066.066 0 00.066.067zM306.381 193.906h1.281a.066.066 0 00.067-.066.066.066 0 00-.067-.067h-1.281a.067.067 0 00-.066.067.067.067 0 00.066.066z"/></g><g><path class="ae" d="M293.858 204.741h4.73l-1-10.9h-2.738z"/><path class="af" d="M297.628 193.748h-2.812v-.331h2.812z"/><path class="ae" d="M292.59 219.856h7.263a.747.747 0 00.747-.747v-14.073a4.379 4.379 0 00-4.379-4.379 4.379 4.379 0 00-4.379 4.379v14.077a.747.747 0 00.748.743z"/><path class="ae" d="M292.59 219.856h7.263a.747.747 0 00.747-.747v-14.073a4.379 4.379 0 00-4.379-4.379 4.379 4.379 0 00-4.379 4.379v14.077a.747.747 0 00.748.743z"/><path class="ae" d="M291.844 205.035v14.079a.746.746 0 00.747.747h7.262a.746.746 0 00.747-.747v-14.079a4.384 4.384 0 00-2.475-3.946 4.3 4.3 0 00-1.723-.428h-.179a4.377 4.377 0 00-4.379 4.379zM294.816 194.088h2.812a.2.2 0 00.2-.2.2.2 0 00-.2-.2h-2.812a.2.2 0 00-.2.2.2.2 0 00.2.2zM294.816 193.468h2.812a.2.2 0 00.2-.2.2.2 0 00-.2-.2h-2.812a.2.2 0 00-.2.2.2.2 0 00.2.2z"/><path class="af" d="M294.816 193.381h2.812a.192.192 0 00.186-.152.172.172 0 01.009.044.2.2 0 01-.2.2h-2.812a.2.2 0 01-.2-.2.2.2 0 01.009-.044.194.194 0 00.196.152zM294.816 194h2.812a.192.192 0 00.186-.152.182.182 0 01.009.044.2.2 0 01-.2.2h-2.812a.2.2 0 01-.2-.2.215.215 0 01.009-.044.193.193 0 00.196.152zM299.853 219.293h-7.263a6.427 6.427 0 017.263 0z"/><path class="ag" d="M296.679 193.273h.961a.066.066 0 00.067-.067.066.066 0 00-.067-.066h-.961a.067.067 0 00-.066.066.066.066 0 00.066.067zM296.363 193.906h1.281a.066.066 0 00.066-.066.066.066 0 00-.066-.067h-1.281a.067.067 0 00-.067.067.067.067 0 00.067.066z"/></g><g><path class="ah" d="M250.52 205.549h6.782v2.89h-6.782z"/><path class="ai" d="M249.941 204.738h7.94v2.443h-7.94z"/><path class="ah" d="M259.537 218.392a1.3 1.3 0 01-1.3 1.3h-8.648a1.3 1.3 0 01-1.3-1.3v-8.652a1.3 1.3 0 011.3-1.3h8.648a1.3 1.3 0 011.3 1.3z"/><path class="aj" d="M261.773 205.549h6.782v2.89h-6.782z"/><path class="ah" d="M261.194 204.738h7.94v2.443h-7.94z"/><path class="aj" d="M270.79 218.392a1.3 1.3 0 01-1.3 1.3h-8.648a1.3 1.3 0 01-1.3-1.3v-8.652a1.3 1.3 0 011.3-1.3h8.648a1.3 1.3 0 011.3 1.3z"/><path class="ai" d="M273.416 205.549h6.782v2.89h-6.782z"/><path fill="#0dbf9d" d="M272.837 204.738h7.94v2.443h-7.94z"/><path class="ai" d="M282.433 218.392a1.3 1.3 0 01-1.3 1.3h-8.649a1.3 1.3 0 01-1.3-1.3v-8.652a1.3 1.3 0 011.3-1.3h8.649a1.3 1.3 0 011.3 1.3z"/><g><path class="al" d="M268.179 208.118h5.55v2.365h-5.55z"/><path fill="#da2d0f" d="M267.706 207.455h6.498v1.998h-6.498z"/><path class="al" d="M268.59 210.483h4.728a2.241 2.241 0 012.24 2.241v4.729a2.239 2.239 0 01-2.238 2.239h-4.73a2.241 2.241 0 01-2.241-2.242v-4.726a2.241 2.241 0 012.241-2.241z"/></g><g><path class="an" d="M256.7 208.118h5.55v2.365h-5.55z"/><path class="ao" d="M256.227 207.455h6.496v1.998h-6.496z"/><path class="an" d="M257.112 210.483h4.724a2.242 2.242 0 012.243 2.242v4.724a2.242 2.242 0 01-2.243 2.243h-4.726a2.239 2.239 0 01-2.239-2.239v-4.729a2.241 2.241 0 012.241-2.241z"/></g><g><path class="ai" d="M245.222 208.118h5.55v2.365h-5.55z"/><path class="ap" d="M244.749 207.455h6.498v1.998h-6.498z"/><path class="ai" d="M252.6 218.627a1.066 1.066 0 01-1.065 1.065h-7.077a1.066 1.066 0 01-1.067-1.065v-7.076a1.064 1.064 0 011.067-1.064h7.077a1.064 1.064 0 011.065 1.064z"/></g><g><path class="aq" d="M279.659 208.118h5.549v2.365h-5.549z"/><path class="ah" d="M279.184 207.455h6.497v1.998h-6.497z"/><path class="aq" d="M287.042 218.627a1.066 1.066 0 01-1.067 1.065h-7.077a1.067 1.067 0 01-1.066-1.065v-7.076a1.065 1.065 0 011.066-1.064h7.077a1.064 1.064 0 011.067 1.064z"/></g></g><g><path class="ar" d="M252.091 276.285h8.125v6.294h-8.125z"/><path class="as" d="M252.593 274.945h7.119v1.34h-7.119z"/><path class="at" d="M252.593 282.579h7.119v1.338h-7.119z"/><path fill="#8ea562" d="M261.89 276.285h8.127v6.294h-8.127z"/><path class="as" d="M262.393 274.945h7.119v1.34h-7.119z"/><path class="at" d="M262.393 282.579h7.119v1.338h-7.119z"/><g><path fill="#ffbc7b" d="M256.962 267.314h8.127v6.293h-8.127z"/><path class="as" d="M257.465 265.973h7.122v1.341h-7.122z"/><path class="at" d="M257.465 273.607h7.122v1.339h-7.122z"/></g><g><path fill="#ff642e" d="M266.762 267.314h8.126v6.293h-8.126z"/><path class="as" d="M267.265 265.973h7.119v1.341h-7.119z"/><path class="at" d="M267.265 273.607h7.119v1.339h-7.119z"/></g><g><path class="al" d="M271.688 276.285h8.126v6.294h-8.126z"/><path class="as" d="M272.191 274.945h7.12v1.34h-7.12z"/><path class="at" d="M272.191 282.579h7.12v1.338h-7.12z"/></g></g><g><path class="ax" d="M314.288 173.238a4.145 4.145 0 114.146-4.145 4.145 4.145 0 01-4.146 4.145z"/><path class="ax" d="M318.434 169.093h-8.29a4.145 4.145 0 008.29 0z"/><path class="ay" d="M310.015 180.503a4.145 4.145 0 114.144-4.145 4.147 4.147 0 01-4.144 4.145z"/><path class="ay" d="M314.157 176.358h-8.29a4.145 4.145 0 108.29 0z"/><path class="az" d="M321.493 179.287a4.144 4.144 0 110-5.861 4.143 4.143 0 010 5.861z"/><path class="az" d="M321.492 173.427l-5.861 5.861a4.144 4.144 0 105.861-5.861z"/><g><path class="ar" d="M309.885 183.622a4.145 4.145 0 11-4.144-4.146 4.146 4.146 0 014.144 4.146z"/><path class="ar" d="M305.741 179.476v8.292a4.146 4.146 0 000-8.292z"/><path class="ba" d="M317.219 186.553a4.145 4.145 0 110-5.862 4.148 4.148 0 010 5.862z"/><path class="ba" d="M317.219 180.69l-5.862 5.862a4.145 4.145 0 005.862-5.862z"/><g><path class="ap" d="M325.767 180.691a4.145 4.145 0 11-5.862 0 4.146 4.146 0 015.862 0z"/><path class="ap" d="M319.905 180.691l5.862 5.862a4.145 4.145 0 00-5.862-5.862z"/></g></g></g><g><path class="p" d="M234.757 283.946h-91.969V136.458h91.969z"/><path class="o" d="M238.304 288.176h-99.063v-4.041h99.063zM238.304 257.389h-99.063v-4.206h99.063zM238.304 223.853h-99.063v-4.041h99.063zM238.304 191.659h-99.063v-4.041h99.063zM238.304 159.693h-99.063v-4.041h99.063z"/><path class="q" d="M234.757 303.681h-91.969v-15.235h91.969z"/><path class="bb" d="M227.833 210.422a.29.29 0 00.238-.124l1.472-2.1a.291.291 0 10-.476-.334l-1.472 2.1a.291.291 0 00.237.458z"/><path class="bc" d="M228.23 209.596a5.508 5.508 0 011.841 8.035 6.157 6.157 0 01-10.05-7.055 5.64 5.64 0 018.209-.98z"/><path class="bd" d="M225.362 208.304a5.356 5.356 0 00-2.312 1.858 5.93 5.93 0 001.754 8.188 6.484 6.484 0 002.954 1.139 6.236 6.236 0 01-5.984-.726 5.929 5.929 0 01-1.754-8.187 5.631 5.631 0 015.342-2.272z"/><path class="be" d="M228.737 208.845a3.655 3.655 0 00-2.12-3.3 2.648 2.648 0 002.12 3.3z"/><path class="bb" d="M214.342 210.422a.29.29 0 00.238-.124l1.472-2.1a.291.291 0 10-.476-.334l-1.472 2.1a.291.291 0 00.237.458z"/><path class="bc" d="M214.738 209.596a5.507 5.507 0 011.84 8.035 6.157 6.157 0 01-10.05-7.055 5.64 5.64 0 018.21-.98z"/><path class="bd" d="M211.87 208.304a5.351 5.351 0 00-2.312 1.858 5.929 5.929 0 001.754 8.188 6.483 6.483 0 002.954 1.139 6.237 6.237 0 01-5.984-.726 5.929 5.929 0 01-1.754-8.187 5.631 5.631 0 015.342-2.272z"/><path class="be" d="M215.245 208.845a3.655 3.655 0 00-2.12-3.3 2.648 2.648 0 002.12 3.3z"/><path class="bb" d="M200.85 210.422a.29.29 0 00.239-.124l1.473-2.1a.291.291 0 10-.476-.334l-1.473 2.1a.291.291 0 00.237.458z"/><path class="bc" d="M201.247 209.596a5.507 5.507 0 011.841 8.035 6.157 6.157 0 01-10.05-7.055 5.64 5.64 0 018.209-.98z"/><path class="bd" d="M198.379 208.304a5.355 5.355 0 00-2.312 1.858 5.929 5.929 0 001.754 8.188 6.484 6.484 0 002.954 1.139 6.235 6.235 0 01-5.984-.726 5.929 5.929 0 01-1.754-8.187 5.63 5.63 0 015.342-2.272z"/><path class="be" d="M201.755 208.845a3.655 3.655 0 00-2.121-3.3 2.648 2.648 0 002.121 3.3z"/><g><path class="bb" d="M187.358 210.422a.29.29 0 00.238-.124l1.472-2.1a.291.291 0 10-.476-.334l-1.472 2.1a.291.291 0 00.238.458z"/><path class="bc" d="M187.756 209.596a5.507 5.507 0 011.84 8.035 6.157 6.157 0 01-10.05-7.055 5.64 5.64 0 018.21-.98z"/><path class="bd" d="M184.888 208.304a5.354 5.354 0 00-2.312 1.858 5.93 5.93 0 001.754 8.188 6.488 6.488 0 002.954 1.139 6.235 6.235 0 01-5.984-.726 5.929 5.929 0 01-1.755-8.187 5.631 5.631 0 015.343-2.272z"/><path class="be" d="M188.263 208.845a3.654 3.654 0 00-2.121-3.3 2.648 2.648 0 002.121 3.3z"/></g><g><path class="bb" d="M173.868 210.422a.291.291 0 00.238-.124l1.472-2.1a.291.291 0 10-.476-.334l-1.472 2.1a.291.291 0 00.238.458z"/><path class="bc" d="M174.264 209.596a5.507 5.507 0 011.84 8.035 6.157 6.157 0 01-10.05-7.055 5.64 5.64 0 018.21-.98z"/><path class="bd" d="M171.396 208.304a5.355 5.355 0 00-2.312 1.858 5.93 5.93 0 001.754 8.188 6.485 6.485 0 002.954 1.139 6.235 6.235 0 01-5.984-.726 5.929 5.929 0 01-1.754-8.187 5.63 5.63 0 015.342-2.272z"/><path class="be" d="M174.771 208.845a3.655 3.655 0 00-2.12-3.3 2.649 2.649 0 002.12 3.3z"/></g><g><path class="bb" d="M160.375 210.422a.29.29 0 00.239-.124l1.472-2.1a.291.291 0 10-.476-.334l-1.472 2.1a.291.291 0 00.071.405.287.287 0 00.166.053z"/><path class="bc" d="M160.772 209.596a5.507 5.507 0 011.84 8.035 6.157 6.157 0 01-10.05-7.055 5.64 5.64 0 018.21-.98z"/><path class="bd" d="M157.904 208.304a5.357 5.357 0 00-2.313 1.858 5.93 5.93 0 001.754 8.188 6.484 6.484 0 002.954 1.139 6.236 6.236 0 01-5.984-.726 5.929 5.929 0 01-1.754-8.187 5.631 5.631 0 015.343-2.272z"/><path class="be" d="M161.279 208.845a3.655 3.655 0 00-2.12-3.3 2.648 2.648 0 002.12 3.3z"/></g><g><path class="bb" d="M166.418 200.687a.291.291 0 00.239-.124l1.472-2.1a.291.291 0 00-.476-.334l-1.472 2.1a.291.291 0 00.237.458z"/><path class="bc" d="M166.816 199.86a5.506 5.506 0 011.84 8.035 6.157 6.157 0 01-10.05-7.055 5.64 5.64 0 018.21-.98z"/><path class="bd" d="M163.948 198.569a5.354 5.354 0 00-2.312 1.858 5.929 5.929 0 001.754 8.187 6.478 6.478 0 002.954 1.139 6.236 6.236 0 01-5.984-.725 5.929 5.929 0 01-1.754-8.187 5.63 5.63 0 015.342-2.272z"/><path class="be" d="M167.322 199.11a3.655 3.655 0 00-2.121-3.3 2.648 2.648 0 002.121 3.3z"/></g><g><path class="bb" d="M179.888 200.687a.29.29 0 00.238-.124l1.472-2.1a.291.291 0 10-.476-.334l-1.472 2.1a.291.291 0 00.237.458z"/><path class="bc" d="M180.283 199.86a5.506 5.506 0 011.84 8.035 6.157 6.157 0 01-10.05-7.055 5.64 5.64 0 018.21-.98z"/><path class="bd" d="M177.416 198.569a5.35 5.35 0 00-2.312 1.858 5.929 5.929 0 001.754 8.187 6.473 6.473 0 002.955 1.139 6.236 6.236 0 01-5.984-.725 5.929 5.929 0 01-1.754-8.187 5.63 5.63 0 015.341-2.272z"/><path class="be" d="M180.786 199.11a3.655 3.655 0 00-2.12-3.3 2.648 2.648 0 002.12 3.3z"/></g><g><path class="bb" d="M193.354 200.687a.291.291 0 00.239-.124l1.472-2.1a.291.291 0 10-.476-.334l-1.472 2.1a.291.291 0 00.071.405.288.288 0 00.166.053z"/><path class="bc" d="M193.751 199.86a5.507 5.507 0 011.84 8.035 6.157 6.157 0 01-10.05-7.055 5.64 5.64 0 018.21-.98z"/><path class="bd" d="M190.883 198.569a5.354 5.354 0 00-2.312 1.858 5.929 5.929 0 001.754 8.187 6.474 6.474 0 002.954 1.139 6.236 6.236 0 01-5.984-.725 5.929 5.929 0 01-1.754-8.187 5.63 5.63 0 015.342-2.272z"/><path class="be" d="M194.258 199.11a3.655 3.655 0 00-2.12-3.3 2.648 2.648 0 002.12 3.3z"/></g><g><path class="bb" d="M206.823 200.687a.291.291 0 00.239-.124l1.472-2.1a.291.291 0 10-.476-.334l-1.472 2.1a.291.291 0 00.238.458z"/><path class="bc" d="M207.22 199.86a5.506 5.506 0 011.84 8.035 6.157 6.157 0 01-10.05-7.055 5.64 5.64 0 018.21-.98z"/><path class="bd" d="M204.352 198.569a5.355 5.355 0 00-2.312 1.858 5.929 5.929 0 001.754 8.187 6.475 6.475 0 002.954 1.139 6.236 6.236 0 01-5.984-.725 5.929 5.929 0 01-1.754-8.187 5.63 5.63 0 015.342-2.272z"/><path class="be" d="M207.727 199.11a3.656 3.656 0 00-2.121-3.3 2.648 2.648 0 002.121 3.3z"/></g><g><path class="bb" d="M220.29 200.687a.29.29 0 00.239-.124l1.472-2.1a.291.291 0 10-.476-.334l-1.472 2.1a.291.291 0 00.071.405.287.287 0 00.166.053z"/><path class="bc" d="M220.687 199.86a5.506 5.506 0 011.84 8.035 6.157 6.157 0 01-10.05-7.055 5.64 5.64 0 018.21-.98z"/><path class="bd" d="M217.819 198.569a5.356 5.356 0 00-2.312 1.858 5.929 5.929 0 001.754 8.187 6.472 6.472 0 002.954 1.139 6.237 6.237 0 01-5.984-.725 5.929 5.929 0 01-1.754-8.187 5.63 5.63 0 015.342-2.272z"/><path class="be" d="M221.194 199.11a3.655 3.655 0 00-2.12-3.3 2.648 2.648 0 002.12 3.3z"/></g><g><path class="bf" d="M227.82 141.475c-3.75 0-3.383 3.959-4.219 6.73s-1.058 7.4 4.219 7.4 5.056-4.632 4.219-7.4-.475-6.73-4.219-6.73z"/><path class="bg" d="M225.635 143.735c-.221 0-.259.277 0 .277s.148-.277 0-.277zM226.687 142.869c-.222 0-.259.277 0 .277s.148-.277 0-.277zM227.638 141.795c-.222 0-.259.277 0 .277s.148-.277 0-.277zM226.177 144.898c-.222 0-.259.277 0 .277s.147-.277 0-.277zM227.471 144.102c-.222 0-.259.277 0 .277s.147-.277 0-.277zM228.211 143.005c-.221 0-.259.277 0 .277s.148-.277 0-.277zM229.037 143.965c-.222 0-.259.277 0 .277s.147-.277 0-.277zM225.11 145.471c-.221 0-.259.277 0 .277s.148-.277 0-.277zM228.546 145.332c-.222 0-.259.277 0 .277s.149-.277 0-.277zM230.393 146.599c-.222 0-.259.277 0 .277s.148-.277 0-.277zM225.802 146.819c-.221 0-.258.277 0 .277s.148-.277 0-.277zM225.467 148.126c-.222 0-.258.277 0 .277s.147-.277 0-.277zM226.52 149.331c-.222 0-.259.277 0 .277s.147-.277 0-.277zM225.299 151.445c-.222 0-.259.277 0 .277s.148-.277 0-.277zM227.135 146.322c-.221 0-.258.277 0 .277s.148-.277 0-.277zM227.471 148.264c-.222 0-.259.277 0 .277s.147-.277 0-.277zM228.709 149.568c-.222 0-.259.277 0 .277s.152-.277 0-.277zM230.058 151.907c-.221 0-.258.277 0 .277s.148-.277 0-.277zM228.546 147.095c-.222 0-.259.277 0 .277s.149-.277 0-.277zM227.471 151.032c-.222 0-.259.277 0 .277s.147-.277 0-.277zM228.546 153.546c-.222 0-.259.277 0 .277s.149-.277 0-.277zM226.856 152.861c-.222 0-.258.277 0 .277s.147-.277 0-.277zM227.471 154.451c-.222 0-.259.277 0 .277s.147-.277 0-.277zM230.226 148.542c-.221 0-.258.277 0 .277s.148-.277 0-.277zM231.324 149.841c-.222 0-.259.277 0 .277s.148-.277 0-.277zM224.567 147.319c-.222 0-.259.277 0 .277s.148-.277 0-.277zM224.231 149.703c-.221 0-.258.277 0 .277s.148-.277 0-.277zM224.399 153.268c-.222 0-.259.277 0 .277s.148-.277 0-.277z"/></g><g><path class="bf" d="M218.132 141.475c-3.749 0-3.382 3.959-4.219 6.73s-1.057 7.4 4.219 7.4 5.056-4.632 4.22-7.4-.47-6.73-4.22-6.73z"/><path class="bg" d="M215.948 143.735c-.222 0-.259.277 0 .277s.147-.277 0-.277zM217.001 142.869c-.221 0-.259.277 0 .277s.153-.277 0-.277zM217.951 141.795c-.221 0-.258.277 0 .277s.152-.277 0-.277zM216.49 144.898c-.222 0-.259.277 0 .277s.148-.277 0-.277zM217.784 144.102c-.222 0-.259.277 0 .277s.147-.277 0-.277zM218.524 143.005c-.222 0-.259.277 0 .277s.147-.277 0-.277zM219.349 143.965c-.222 0-.259.277 0 .277s.148-.277 0-.277zM215.423 145.471c-.222 0-.259.277 0 .277s.148-.277 0-.277zM218.859 145.332c-.221 0-.258.277 0 .277s.148-.277 0-.277zM220.707 146.599c-.222 0-.258.277 0 .277s.152-.277 0-.277zM216.116 146.819c-.222 0-.259.277 0 .277s.147-.277 0-.277zM215.78 148.126c-.222 0-.259.277 0 .277s.148-.277 0-.277zM216.833 149.331c-.221 0-.258.277 0 .277s.148-.277 0-.277zM215.612 151.445c-.221 0-.258.277 0 .277s.148-.277 0-.277zM217.448 146.322c-.222 0-.259.277 0 .277s.148-.277 0-.277zM217.784 148.264c-.222 0-.259.277 0 .277s.147-.277 0-.277zM219.027 149.568c-.221 0-.258.277 0 .277s.148-.277 0-.277zM220.372 151.907c-.222 0-.259.277 0 .277s.147-.277 0-.277zM218.859 147.095c-.221 0-.258.277 0 .277s.148-.277 0-.277zM217.784 151.032c-.222 0-.259.277 0 .277s.147-.277 0-.277zM218.859 153.546c-.221 0-.258.277 0 .277s.148-.277 0-.277zM217.168 152.861c-.222 0-.259.277 0 .277s.148-.277 0-.277zM217.784 154.451c-.222 0-.259.277 0 .277s.147-.277 0-.277zM220.539 148.542c-.222 0-.258.277 0 .277s.147-.277 0-.277zM221.638 149.841c-.222 0-.259.277 0 .277s.148-.277 0-.277zM214.88 147.319c-.222 0-.258.277 0 .277s.148-.277 0-.277zM214.544 149.703c-.222 0-.259.277 0 .277s.148-.277 0-.277zM214.713 153.268c-.222 0-.258.277 0 .277s.147-.277 0-.277z"/></g><g><path class="bf" d="M208.444 141.475c-3.749 0-3.383 3.959-4.219 6.73s-1.058 7.4 4.219 7.4 5.056-4.632 4.219-7.4-.469-6.73-4.219-6.73z"/><path class="bg" d="M206.26 143.735c-.221 0-.258.277 0 .277s.148-.277 0-.277zM207.312 142.869c-.222 0-.259.277 0 .277s.146-.277 0-.277zM208.264 141.795c-.222 0-.259.277 0 .277s.144-.277 0-.277zM206.802 144.898c-.222 0-.258.277 0 .277s.147-.277 0-.277zM208.093 144.102c-.222 0-.259.277 0 .277s.15-.277 0-.277zM208.835 143.005c-.221 0-.259.277 0 .277s.148-.277 0-.277zM209.663 143.965c-.222 0-.259.277 0 .277s.145-.277 0-.277zM205.735 145.471c-.221 0-.259.277 0 .277s.148-.277 0-.277zM209.172 145.332c-.222 0-.259.277 0 .277s.147-.277 0-.277zM211.019 146.599c-.222 0-.259.277 0 .277s.144-.277 0-.277zM206.427 146.819c-.221 0-.258.277 0 .277s.148-.277 0-.277zM206.092 148.126c-.222 0-.258.277 0 .277s.147-.277 0-.277zM207.143 149.331c-.222 0-.259.277 0 .277s.149-.277 0-.277zM205.924 151.445c-.222 0-.259.277 0 .277s.148-.277 0-.277zM207.764 146.322c-.221 0-.259.277 0 .277s.144-.277 0-.277zM208.093 148.264c-.222 0-.259.277 0 .277s.15-.277 0-.277zM209.339 149.568c-.222 0-.259.277 0 .277s.148-.277 0-.277zM210.683 151.907c-.221 0-.258.277 0 .277s.151-.277 0-.277zM209.172 147.095c-.222 0-.259.277 0 .277s.147-.277 0-.277zM208.093 151.032c-.222 0-.259.277 0 .277s.15-.277 0-.277zM209.172 153.546c-.222 0-.259.277 0 .277s.147-.277 0-.277zM207.481 152.861c-.222 0-.258.277 0 .277s.147-.277 0-.277zM208.093 154.451c-.222 0-.259.277 0 .277s.15-.277 0-.277zM210.848 148.542c-.222 0-.259.277 0 .277s.15-.277 0-.277zM211.95 149.841c-.222 0-.259.277 0 .277s.147-.277 0-.277zM205.192 147.319c-.222 0-.259.277 0 .277s.148-.277 0-.277zM204.856 149.703c-.221 0-.258.277 0 .277s.148-.277 0-.277zM205.024 153.268c-.222 0-.259.277 0 .277s.148-.277 0-.277z"/></g><g><path class="bf" d="M198.757 141.475c-3.749 0-3.382 3.959-4.219 6.73s-1.057 7.4 4.219 7.4 5.056-4.632 4.22-7.4-.47-6.73-4.22-6.73z"/><path class="bg" d="M196.572 143.735c-.222 0-.259.277 0 .277s.148-.277 0-.277zM197.626 142.869c-.221 0-.258.277 0 .277s.148-.277 0-.277zM198.576 141.795c-.221 0-.258.277 0 .277s.148-.277 0-.277zM197.114 144.898c-.222 0-.259.277 0 .277s.148-.277 0-.277zM198.409 144.102c-.222 0-.259.277 0 .277s.148-.277 0-.277zM199.149 143.005c-.222 0-.258.277 0 .277s.147-.277 0-.277zM199.969 143.965c-.222 0-.258.277 0 .277s.152-.277 0-.277zM196.048 145.471c-.222 0-.258.277 0 .277s.148-.277 0-.277zM199.484 145.332c-.221 0-.259.277 0 .277s.148-.277 0-.277zM201.332 146.599c-.221 0-.259.277 0 .277s.148-.277 0-.277zM196.742 146.819c-.222 0-.259.277 0 .277s.146-.277 0-.277zM196.405 148.126c-.222 0-.259.277 0 .277s.148-.277 0-.277zM197.458 149.331c-.221 0-.258.277 0 .277s.148-.277 0-.277zM196.237 151.445c-.221 0-.259.277 0 .277s.148-.277 0-.277zM198.07 146.322c-.222 0-.259.277 0 .277s.151-.277 0-.277zM198.409 148.264c-.222 0-.259.277 0 .277s.148-.277 0-.277zM199.652 149.568c-.221 0-.259.277 0 .277s.148-.277 0-.277zM200.996 151.907c-.222 0-.259.277 0 .277s.144-.277 0-.277zM199.484 147.095c-.221 0-.259.277 0 .277s.148-.277 0-.277zM198.409 151.032c-.222 0-.259.277 0 .277s.148-.277 0-.277zM199.484 153.546c-.221 0-.259.277 0 .277s.148-.277 0-.277zM197.793 152.861c-.222 0-.259.277 0 .277s.148-.277 0-.277zM198.409 154.451c-.222 0-.259.277 0 .277s.148-.277 0-.277zM201.164 148.542c-.222 0-.258.277 0 .277s.147-.277 0-.277zM202.263 149.841c-.222 0-.259.277 0 .277s.148-.277 0-.277zM195.507 147.319c-.221 0-.258.277 0 .277s.146-.277 0-.277zM195.169 149.703c-.222 0-.259.277 0 .277s.148-.277 0-.277zM195.338 153.268c-.222 0-.258.277 0 .277s.147-.277 0-.277z"/></g><g><path class="bf" d="M189.07 141.475c-3.75 0-3.383 3.959-4.219 6.73s-1.057 7.4 4.219 7.4 5.056-4.632 4.219-7.4-.47-6.73-4.219-6.73z"/><path class="bg" d="M186.885 143.735c-.221 0-.258.277 0 .277s.147-.277 0-.277zM187.938 142.869c-.222 0-.259.277 0 .277s.147-.277 0-.277zM188.889 141.795c-.222 0-.259.277 0 .277s.147-.277 0-.277zM187.427 144.898c-.222 0-.258.277 0 .277s.147-.277 0-.277zM188.721 144.102c-.222 0-.259.277 0 .277s.147-.277 0-.277zM189.461 143.005c-.221 0-.258.277 0 .277s.148-.277 0-.277zM190.286 143.965c-.222 0-.259.277 0 .277s.148-.277 0-.277zM186.36 145.471c-.221 0-.258.277 0 .277s.152-.277 0-.277zM189.796 145.332c-.222 0-.259.277 0 .277s.148-.277 0-.277zM191.644 146.599c-.222 0-.259.277 0 .277s.147-.277 0-.277zM187.052 146.819c-.221 0-.258.277 0 .277s.148-.277 0-.277zM186.717 148.126c-.222 0-.259.277 0 .277s.147-.277 0-.277zM187.769 149.331c-.222 0-.259.277 0 .277s.148-.277 0-.277zM186.549 151.445c-.222 0-.259.277 0 .277s.148-.277 0-.277zM188.385 146.322c-.221 0-.259.277 0 .277s.148-.277 0-.277zM188.721 148.264c-.222 0-.259.277 0 .277s.147-.277 0-.277zM189.964 149.568c-.222 0-.258.277 0 .277s.148-.277 0-.277zM191.308 151.907c-.222 0-.259.277 0 .277s.148-.277 0-.277zM189.796 147.095c-.222 0-.259.277 0 .277s.148-.277 0-.277zM188.721 151.032c-.222 0-.259.277 0 .277s.147-.277 0-.277zM189.796 153.546c-.222 0-.259.277 0 .277s.148-.277 0-.277zM188.106 152.861c-.222 0-.258.277 0 .277s.147-.277 0-.277zM188.721 154.451c-.222 0-.259.277 0 .277s.147-.277 0-.277zM191.476 148.542c-.222 0-.259.277 0 .277s.148-.277 0-.277zM192.575 149.841c-.222 0-.258.277 0 .277s.147-.277 0-.277zM185.818 147.319c-.222 0-.259.277 0 .277s.147-.277 0-.277zM185.482 149.703c-.221 0-.258.277 0 .277s.147-.277 0-.277zM185.649 153.268c-.222 0-.259.277 0 .277s.148-.277 0-.277z"/></g><g><path class="bf" d="M179.381 141.475c-3.749 0-3.382 3.959-4.219 6.73s-1.058 7.4 4.219 7.4 5.056-4.632 4.219-7.4-.469-6.73-4.219-6.73z"/><path class="bg" d="M177.196 143.735c-.222 0-.259.277 0 .277s.148-.277 0-.277zM178.25 142.869c-.221 0-.258.277 0 .277s.148-.277 0-.277zM179.2 141.795c-.221 0-.258.277 0 .277s.148-.277 0-.277zM177.737 144.898c-.222 0-.259.277 0 .277s.149-.277 0-.277zM179.033 144.102c-.222 0-.258.277 0 .277s.147-.277 0-.277zM179.773 143.005c-.222 0-.258.277 0 .277s.148-.277 0-.277zM180.598 143.965c-.222 0-.258.277 0 .277s.147-.277 0-.277zM176.672 145.471c-.222 0-.258.277 0 .277s.144-.277 0-.277zM180.108 145.332c-.221 0-.258.277 0 .277s.148-.277 0-.277zM181.956 146.599c-.221 0-.258.277 0 .277s.148-.277 0-.277zM177.364 146.819c-.222 0-.259.277 0 .277s.148-.277 0-.277zM177.029 148.126c-.222 0-.259.277 0 .277s.147-.277 0-.277zM178.082 149.331c-.221 0-.258.277 0 .277s.148-.277 0-.277zM176.861 151.445c-.221 0-.258.277 0 .277s.146-.277 0-.277zM178.697 146.322c-.222 0-.259.277 0 .277s.148-.277 0-.277zM179.033 148.264c-.222 0-.258.277 0 .277s.147-.277 0-.277zM180.276 149.568c-.221 0-.258.277 0 .277s.148-.277 0-.277zM181.62 151.907c-.222 0-.259.277 0 .277s.148-.277 0-.277zM180.108 147.095c-.221 0-.258.277 0 .277s.148-.277 0-.277zM179.033 151.032c-.222 0-.258.277 0 .277s.147-.277 0-.277zM180.108 153.546c-.221 0-.258.277 0 .277s.148-.277 0-.277zM178.418 152.861c-.222 0-.259.277 0 .277s.147-.277 0-.277zM179.033 154.451c-.222 0-.258.277 0 .277s.147-.277 0-.277zM181.788 148.542c-.222 0-.259.277 0 .277s.147-.277 0-.277zM182.886 149.841c-.222 0-.259.277 0 .277s.148-.277 0-.277zM176.129 147.319c-.221 0-.258.277 0 .277s.148-.277 0-.277zM175.794 149.703c-.222 0-.258.277 0 .277s.147-.277 0-.277zM175.961 153.268c-.222 0-.258.277 0 .277s.147-.277 0-.277z"/></g><g><path class="bf" d="M169.694 141.475c-3.75 0-3.383 3.959-4.22 6.73s-1.057 7.4 4.22 7.4 5.056-4.632 4.219-7.4-.469-6.73-4.219-6.73z"/><path class="bg" d="M167.51 143.735c-.221 0-.258.277 0 .277s.148-.277 0-.277zM168.563 142.869c-.222 0-.259.277 0 .277s.147-.277 0-.277zM169.513 141.795c-.222 0-.259.277 0 .277s.148-.277 0-.277zM168.052 144.898c-.222 0-.258.277 0 .277s.148-.277 0-.277zM169.345 144.102c-.222 0-.259.277 0 .277s.148-.277 0-.277zM170.085 143.005c-.221 0-.258.277 0 .277s.148-.277 0-.277zM170.911 143.965c-.222 0-.259.277 0 .277s.147-.277 0-.277zM166.985 145.471c-.221 0-.258.277 0 .277s.148-.277 0-.277zM170.425 145.332c-.222 0-.259.277 0 .277s.144-.277 0-.277zM172.269 146.599c-.222 0-.259.277 0 .277s.147-.277 0-.277zM167.677 146.819c-.221 0-.258.277 0 .277s.148-.277 0-.277zM167.342 148.126c-.222 0-.258.277 0 .277s.147-.277 0-.277zM168.395 149.331c-.222 0-.259.277 0 .277s.148-.277 0-.277zM167.175 151.445c-.222 0-.259.277 0 .277s.147-.277 0-.277zM169.01 146.322c-.221 0-.258.277 0 .277s.148-.277 0-.277zM169.345 148.264c-.222 0-.259.277 0 .277s.148-.277 0-.277zM170.589 149.568c-.222 0-.258.277 0 .277s.15-.277 0-.277zM171.933 151.907c-.221 0-.258.277 0 .277s.148-.277 0-.277zM170.425 147.095c-.222 0-.259.277 0 .277s.144-.277 0-.277zM169.345 151.032c-.222 0-.259.277 0 .277s.148-.277 0-.277zM170.425 153.546c-.222 0-.259.277 0 .277s.144-.277 0-.277zM168.731 152.861c-.222 0-.259.277 0 .277s.147-.277 0-.277zM169.345 154.451c-.222 0-.259.277 0 .277s.148-.277 0-.277zM172.1 148.542c-.222 0-.259.277 0 .277s.148-.277 0-.277zM173.2 149.841c-.222 0-.259.277 0 .277s.147-.277 0-.277zM166.443 147.319c-.222 0-.259.277 0 .277s.147-.277 0-.277zM166.106 149.703c-.221 0-.258.277 0 .277s.148-.277 0-.277zM166.274 153.268c-.222 0-.259.277 0 .277s.148-.277 0-.277z"/></g><g><path class="bf" d="M160.006 141.475c-3.749 0-3.382 3.959-4.219 6.73s-1.058 7.4 4.219 7.4 5.056-4.632 4.219-7.4-.469-6.73-4.219-6.73z"/><path class="bg" d="M157.822 143.735c-.222 0-.259.277 0 .277s.147-.277 0-.277zM158.875 142.869c-.221 0-.259.277 0 .277s.148-.277 0-.277zM159.825 141.795c-.221 0-.258.277 0 .277s.148-.277 0-.277zM158.364 144.898c-.222 0-.259.277 0 .277s.147-.277 0-.277zM159.658 144.102c-.222 0-.258.277 0 .277s.147-.277 0-.277zM160.4 143.005c-.222 0-.258.277 0 .277s.145-.277 0-.277zM161.223 143.965c-.222 0-.258.277 0 .277s.147-.277 0-.277zM157.297 145.471c-.222 0-.258.277 0 .277s.147-.277 0-.277zM160.729 145.332c-.221 0-.258.277 0 .277s.152-.277 0-.277zM162.581 146.599c-.221 0-.258.277 0 .277s.148-.277 0-.277zM157.989 146.819c-.222 0-.259.277 0 .277s.148-.277 0-.277zM157.654 148.126c-.222 0-.259.277 0 .277s.148-.277 0-.277zM158.707 149.331c-.221 0-.259.277 0 .277s.148-.277 0-.277zM157.486 151.445c-.221 0-.258.277 0 .277s.148-.277 0-.277zM159.322 146.322c-.222 0-.259.277 0 .277s.147-.277 0-.277zM159.658 148.264c-.222 0-.258.277 0 .277s.147-.277 0-.277zM160.901 149.568c-.221 0-.259.277 0 .277s.143-.277 0-.277zM162.245 151.907c-.222 0-.259.277 0 .277s.148-.277 0-.277zM160.729 147.095c-.221 0-.258.277 0 .277s.152-.277 0-.277zM159.658 151.032c-.222 0-.258.277 0 .277s.147-.277 0-.277zM160.729 153.546c-.221 0-.258.277 0 .277s.152-.277 0-.277zM159.042 152.861c-.222 0-.259.277 0 .277s.148-.277 0-.277zM159.658 154.451c-.222 0-.258.277 0 .277s.147-.277 0-.277zM162.413 148.542c-.222 0-.259.277 0 .277s.148-.277 0-.277zM163.512 149.841c-.222 0-.259.277 0 .277s.146-.277 0-.277zM156.754 147.319c-.221 0-.259.277 0 .277s.148-.277 0-.277zM156.419 149.703c-.222 0-.258.277 0 .277s.147-.277 0-.277zM156.586 153.268c-.222 0-.258.277 0 .277s.147-.277 0-.277z"/></g><g><path class="bf" d="M150.318 141.475c-3.75 0-3.383 3.959-4.219 6.73s-1.057 7.4 4.219 7.4 5.056-4.632 4.219-7.4-.469-6.73-4.219-6.73z"/><path class="bg" d="M148.134 143.735c-.221 0-.258.277 0 .277s.148-.277 0-.277zM149.187 142.869c-.222 0-.258.277 0 .277s.147-.277 0-.277zM150.137 141.795c-.222 0-.259.277 0 .277s.148-.277 0-.277zM148.676 144.898c-.222 0-.258.277 0 .277s.147-.277 0-.277zM149.969 144.102c-.222 0-.259.277 0 .277s.153-.277 0-.277zM150.704 143.005c-.221 0-.258.277 0 .277s.153-.277 0-.277zM151.535 143.965c-.222 0-.259.277 0 .277s.148-.277 0-.277zM147.609 145.471c-.222 0-.259.277 0 .277s.148-.277 0-.277zM151.045 145.332c-.222 0-.259.277 0 .277s.148-.277 0-.277zM152.892 146.599c-.222 0-.259.277 0 .277s.148-.277 0-.277zM148.301 146.819c-.221 0-.258.277 0 .277s.148-.277 0-.277zM147.966 148.126c-.222 0-.258.277 0 .277s.147-.277 0-.277zM149.018 149.331c-.222 0-.259.277 0 .277s.148-.277 0-.277zM147.798 151.445c-.222 0-.258.277 0 .277s.147-.277 0-.277zM149.634 146.322c-.221 0-.258.277 0 .277s.148-.277 0-.277zM149.969 148.264c-.222 0-.259.277 0 .277s.153-.277 0-.277zM151.213 149.568c-.222 0-.259.277 0 .277s.147-.277 0-.277zM152.557 151.907c-.221 0-.258.277 0 .277s.147-.277 0-.277zM151.045 147.095c-.222 0-.259.277 0 .277s.148-.277 0-.277zM149.969 151.032c-.222 0-.259.277 0 .277s.153-.277 0-.277zM151.045 153.546c-.222 0-.259.277 0 .277s.148-.277 0-.277zM149.355 152.861c-.222 0-.258.277 0 .277s.147-.277 0-.277zM149.969 154.451c-.222 0-.259.277 0 .277s.153-.277 0-.277zM152.726 148.542c-.222 0-.259.277 0 .277s.152-.277 0-.277zM153.824 149.841c-.222 0-.258.277 0 .277s.147-.277 0-.277zM147.067 147.319c-.222 0-.259.277 0 .277s.147-.277 0-.277zM146.73 149.703c-.221 0-.259.277 0 .277s.148-.277 0-.277zM146.899 153.268c-.222 0-.259.277 0 .277s.147-.277 0-.277z"/></g></g></g><g><path class="bh" d="M423.132 356.717h-65.677v-54.158h65.677z"/><path class="o" d="M455.972 356.717h-65.677v-54.158h65.677z"/><path d="M357.494 342.982h10.407l-.917-2.925.917-2.095h-10.407z" fill="#9dc3f3"/><path class="bh" d="M390.294 319.32h10.407l-.917-2.93.917-2.091h-10.407z"/><path class="o" d="M390.295 314.3h-10.407l.917 2.93-.917 2.091h10.407z"/><path class="bh" d="M455.976 343.563h-10.411l.921 2.929-.921 2.095h10.411z"/><path class="bj" d="M432.77 306.233h18.899v7.353H432.77z"/><path class="bk" d="M338.847 356.717H273.17v-54.158h65.677z"/><path class="o" d="M371.684 356.717h-65.677v-54.158h65.677zM273.206 342.982h10.407l-.917-2.925.917-2.095h-10.407z"/><path class="bk" d="M306.007 319.32h10.407l-.917-2.93.917-2.091h-10.407z"/><path class="o" d="M306.007 314.3H295.6l.917 2.93-.917 2.091h10.407z"/><path class="bk" d="M371.689 343.563h-10.407l.917 2.929-.917 2.095h10.407zM371.689 313.586h-10.407l.917 2.929-.917 2.091h10.407z"/><path class="bj" d="M312.639 338.933h30.804v11.983h-30.804z"/><path class="bk" d="M318.338 302.313h-50.211V260.91h50.211z"/><path class="o" d="M343.443 302.313h-50.211V260.91h50.211zM268.158 291.812h7.954l-.7-2.239.7-1.6h-7.954z"/><path class="bk" d="M293.233 273.724h7.957l-.7-2.239.7-1.6h-7.957z"/><path class="o" d="M293.232 269.886h-7.954l.7 2.239-.7 1.6h7.954z"/><path class="bk" d="M343.448 292.257h-7.958l.7 2.239-.7 1.6h7.958z"/><path class="bj" d="M325.706 263.718h14.448v5.621h-14.448z"/><path class="bk" d="M408.051 302.313H357.84V260.91h50.211z"/><path class="o" d="M433.153 302.313h-50.211V260.91h50.211zM357.868 291.812h7.958l-.7-2.239.7-1.6h-7.958z"/><path class="bk" d="M382.945 273.724h7.954l-.7-2.239.7-1.6h-7.954z"/><path class="o" d="M382.946 269.886h-7.958l.7 2.239-.7 1.6h7.957z"/><path class="bk" d="M433.157 292.257H425.2l.7 2.239-.7 1.6h7.958z"/><path class="bj" d="M415.42 263.718h14.448v5.621H415.42z"/></g><g><path class="bl" d="M95.246 225.797h108.607v78.997H95.246z"/><path fill="#d2e0ff" d="M92.372 225.797h135.54v4.824H92.372z"/><path d="M123.502 192.664l-2.6 30.94s-.273 1.876 1.122 1.879c2.294.006 11.417 0 11.417 0s-1.726-.391-1.705-1.269c.025-1.036 3.041-31.843 3.041-31.843z" fill="#d86713"/><path class="j" d="M134.177 224.917c-.451 0-9.165.029-11.4 0-.974-.012-1.144-.865-1.152-1.418a2.769 2.769 0 01.03-.461l.067-.8.173-2.05.152-1.811.2-2.327.165-1.964 1.849-21.985 11.273-.293s-1.27 12.893-2.169 22.278c-.1 1.046-.2 2.048-.284 2.984l-.083.875-.226 2.423q-.052.569-.1 1.055c-.115 1.266-.182 2.074-.183 2.228a1.282 1.282 0 00.022.25c.189.984 1.5 1.016 1.666 1.016z"/><path class="l" d="M96.124 175.822l6.339 25.46.868 3.487 2.952 11.859h54.846l-10.881-40.806z"/><path class="l" d="M96.125 175.822l-.878.293 9.869 41.4 1.168-.886z"/><path class="l" d="M105.117 217.513h54.508l1.505-.886h-54.847z"/><path class="bo" d="M136.059 225.49h-11.802v-.561h11.802zM158.472 209.109l-8.9-32.747h-53.53v-.539h54.211l8.87 33.214z"/><path class="i" d="M133.059 217.514l-.061.429-11.1 2.242.152-1.811.073-.86z"/><path d="M134.176 224.916c-.451 0-9.165.029-11.4 0-.973-.012-1.144-.865-1.152-1.418l11.047-2.078c-.115 1.266-.182 2.074-.183 2.228a1.284 1.284 0 00.022.25c.19.986 1.501 1.018 1.666 1.018z" opacity=".4" fill="#d86713"/><path d="M130.376 208.367l-24.093 8.26-2.952-11.858z" opacity=".4" fill="#0b397d"/><path class="bl" d="M96.125 175.822h54.123l8.781 32.795H104.01z"/><path class="bj" d="M156.476 207.196h-50.677l-5.739-22.862-.44-1.753-.376-1.5-.88-3.506h49.945l.966 3.506.412 1.5.483 1.753z"/><path class="br" d="M143.436 179.178l-2.279.032-.051-.2 2.279-.032zM142.934 179.724l-1.638.023-.051-.2 1.638-.023zM144.815 179.697l-1.638.023-.051-.2 1.638-.023zM146.178 179.677l-1.015.014-.051-.2 1.015-.014zM145.265 179.152l-1.406.02-.051-.2 1.406-.02zM147.184 179.125l-1.406.019-.051-.2 1.406-.02z"/><g><path class="br" d="M149.519 205.162l-2.279.032-.051-.2 2.279-.032zM149.013 205.708l-1.638.023-.051-.2 1.638-.023zM150.895 205.681l-1.639.023-.051-.2 1.635-.023zM152.257 205.662l-1.015.015-.051-.2 1.015-.014zM151.344 205.136l-1.406.02-.051-.2 1.406-.02zM153.264 205.109l-1.406.02-.051-.2 1.406-.02z"/></g><path class="e" d="M103.179 182.183h37.782l1.035 3.623h-37.782zM129.747 203.143h8.551l1.035 2.588h-9.068z"/><path d="M105.25 188.393h23.463l4.675 13.534h-23.981z" fill="#f3f7ff"/><g><path d="M159.922 295.453s-.488 7.61-1.961 7.716c-.2.014-7.468 0-7.468 0l-9.284-.074a3.012 3.012 0 012.781-2.7c2.715-.467 7.261-2.364 8.913-5.948 1.737-3.775 7.019 1.006 7.019 1.006z" fill="#0e2c4f"/><path class="bu" d="M186.497 232.855c.355.3 9.81 10.544 9.038 18.413a4.539 4.539 0 01-4.54 4.049h-11.518s-11.752 2.1-12.033 4.64-2.685 16.23-7.451 35.685c0 0-3.512 1.209-5.642.346-2.817-1.142-3.226-2.354-3.226-2.354s2.841-43.564 5.083-46.63 25.346-12.18 32.828-13.088-2.539-1.061-2.539-1.061z"/><path class="bv" d="M119.701 221.99s-6.683-1.554-8.392 0a8.422 8.422 0 00-2.253 3.808h10.645z"/><path class="bu" d="M143.652 295.453s-.488 7.61-1.961 7.716c-.2.014-7.468 0-7.468 0l-9.284-.074a3.012 3.012 0 012.78-2.7c2.715-.467 7.261-2.364 8.913-5.948 1.737-3.775 7.02 1.006 7.02 1.006z"/><path class="bw" d="M195.232 232.855a63.309 63.309 0 013.681 11.986 8.629 8.629 0 01-8.426 10.475h-26.793s-11.752 2.1-12.033 4.64-2.685 16.23-7.451 35.685a11.215 11.215 0 01-6.276-.251 7.771 7.771 0 01-2.618-2.125s2.866-43.2 5.109-46.261 25.347-12.18 32.828-13.088 21.979-1.061 21.979-1.061z"/><path class="bv" d="M180.381 193.91l-4.143 3.977h-7.06c-.008-.568.016-2.935.04-5.08 0-.126 0-.252.005-.376l.017-1.355c.014-1.182.026-2.038.026-2.038l1.815-1.241 4.032-2.761 2.18-1.49c0 .037.181 1.987.208 2.27a16.537 16.537 0 002.88 8.094z"/><path class="bu" d="M170.116 193.192c.135-.057 7.774-3.484 8.667-3.188s2.007 3.023 2.007 3.023l-13.451 3.041a6.679 6.679 0 012.777-2.876z"/><path class="bx" d="M203.157 216.084c-1.455-8.974-7.6-15.691-10.23-18.209-1.766-2.656-12.137-4.847-12.137-4.847l-13.451 3.041a17.139 17.139 0 00-11.857 7.894c-2.644 4.373-10.217 14.375-15.19 14.686S119.7 221.99 119.7 221.99v3.842l23.812.653a4.029 4.029 0 00.867-.068c2.049-.386 10.832-2.132 15.2-4.405.7 11.248 1.522 28.424 5.45 31.151 4.155 2.885 33.376 3.271 36.47-1.126 1.583-2.25-.358-15.574-2.784-28.422 3.016-1.437 5.055-3.768 4.442-7.531z"/><path d="M176.164 187.389l-.36.224a28.906 28.906 0 01-6.565 3.465c.014-1.182.026-2.039.026-2.039l1.815-1.241z" fill="#eaa16e"/><path class="bv" d="M166.792 189.101s10.863 1.286 11.559-5.492 2.567-11.176-4.339-12.283-8.521 1.34-9.3 3.546-.729 13.72 2.08 14.229z"/><path class="bu" d="M164.995 174.177s2.051 7.352 3.536 6.739 2.842-1.115 3.037 1.18-1.463 5.3 3.375 4.807 9.392-14.055 7.649-16.137c-5.03-6.007-24.584-3.757-17.597 3.411z"/></g><g transform="translate(148.13 199.743)"><path d="M60.5 57.031H9.171v-6.1H66.6a6.1 6.1 0 01-6.1 6.1z" fill="#77a4e5"/><rect class="ca" width="46.116" height="6.098" rx="3.049" transform="rotate(180 23.058 28.515)"/><g transform="translate(19.242 57.031)"><path class="bw" d="M17.334 44.105H20.8l.973-44.1h-5.295z"/><path class="bw" d="M2.271 44.106h33.708v-3.045l-17.18-1.549-16.528 1.549z"/><circle class="bw" cx="2.773" cy="2.773" r="2.773" transform="rotate(-40.675 74.737 -22.272)"/><path class="bw" d="M5.546 43.623a2.773 2.773 0 10-2.773 2.773 2.773 2.773 0 002.773-2.773zM3.479 2.894h31.292A2.894 2.894 0 0037.665.001H.586a2.893 2.893 0 002.893 2.893z"/></g><path class="ca" d="M61.292 57.031a2.638 2.638 0 002.638-2.639V13.784c0-7.61-4.976-13.78-11.114-13.78H27.685c-6.138 0-11.113 6.169-11.113 13.78v43.251z"/><path d="M61.788 57.031a4.812 4.812 0 004.812-4.812V13.784c0-7.61-4.976-13.78-11.113-13.78H30.355c-6.138 0-11.114 6.169-11.114 13.78v43.251z" fill="#a78561"/></g><g><path d="M145.472 198.047h-1.03l.091.29-.091.207h1.03z" fill="#e3f0ff"/><path class="bj" d="M143.174 194.351h1.871v.728h-1.871z"/><path fill="#d8702a" d="M141.39 191.673h4.006v3.303h-4.006z"/><path fill="#ff9e55" d="M139.388 191.673h4.006v3.303h-4.006z"/><path class="cf" d="M145.394 194.138h-.635l.056-.179-.056-.128h.635z"/><path class="bv" d="M143.393 192.695h-.634l.056-.178-.056-.128h.634z"/><path class="cf" d="M143.393 192.389h.635l-.056.179.056.128h-.635z"/><path class="bv" d="M139.387 194.174h.635l-.056.179.056.128h-.635z"/><path class="bj" d="M140.803 192.345h-1.153v-.449h1.153z"/><path class="bv" d="M141.275 194.833c-.1-.063-.317-.2-.328-.168a.144.144 0 00.033.1.928.928 0 00-.574 0 .235.235 0 00-.149.107.1.1 0 00.042.159c.163.091.115.035.342.171a.652.652 0 00.657.055l.216-.046.013-.358s-.123-.002-.252-.02zM146.896 191.149a1.11 1.11 0 01-1.209.133 1.965 1.965 0 01-.031-.606l.015-.088c.048-.277.068-.435.068-.435.031-.007 1.055-.219 1.048-.187a1.717 1.717 0 00.109 1.183z"/><path d="M146.656 190.128a1.509 1.509 0 01-.988.461c.048-.277.068-.434.068-.434a6.271 6.271 0 01.92-.027z" fill="#ed975d"/><path class="bv" d="M145.542 190.087s1.022.453 1.293-.189.586-1.014-.055-1.329-.872-.125-1.015.067-.482 1.317-.223 1.451z"/><path d="M146.764 190.074c.013.011.23.126.828-.661a.771.771 0 00.085-.7 2.082 2.082 0 00-1.091-.779c-.453-.177-.615.066-.775.311a1.461 1.461 0 01-.547.424c.363.3.911.07 1.07.155s.169.363.166.45 0 .162.229.126.04.317-.008.385c.002.001-.067.188.043.289z" fill="#343434"/><path class="ci" d="M148.329 207.141h.661c.136 0 .291-.136.33-.391s.322-.391.384-.6-.254-.5-.254-.5l-.052-.068-.055-.071-.522.123s-.013.124-.021.282a3.524 3.524 0 000 .363c.015.276-.078.574-.323.627s-.148.235-.148.235zM143.742 207.146h1.746a.125.125 0 00.037-.011c.116-.058.08-.5.066-.642v-.041s-.614-.491-.7-.115q0 .018-.009.034c-.106.352-.583.512-.858.556a.3.3 0 00-.282.219z"/><path class="cj" d="M144.095 197.076s.094 1.163.2 2.561c.149 1.9.328 4.232.346 4.674.031.768.154 1.993.154 1.993a.964.964 0 00.875.169 20.024 20.024 0 00.668-3.606c0-.031 0-.061.007-.091.136-1.888.325-6.107.325-6.107z"/><path d="M144.442 196.996a7.245 7.245 0 00.275 2.088 32.838 32.838 0 001.623 3.783c0-.03 0-.061.007-.09.136-1.888.352-5.863.352-5.863z" fill="#5666cf"/><path class="cj" d="M144.442 196.996s1.759 4.428 2.864 6.408 1.45 2.532 1.45 2.532.634-.253.691-.426c0 0-.423-3.822-1.163-4.754a7.007 7.007 0 01-.932-2.659 31.78 31.78 0 00-.149-1.646z"/><path class="bx" d="M144.354 196.912a15.3 15.3 0 002.844-.227 21.619 21.619 0 01.24-2.311c.025-.185.043-.368.057-.549a8.29 8.29 0 000-1.337 2.575 2.575 0 00-.72-1.665c-.045-.036-.2.085-.472.194a.939.939 0 01-.668-.033l-.285.251a2.7 2.7 0 00-.615.861s-.403 4.815-.381 4.816z"/><path class="cj" d="M144.737 192.093l.709.165.976 2.643a.966.966 0 00.906.632l-.085 1.3-3.149.236z"/><path class="bx" d="M141.337 195.036c-.022-.207.084-.245.084-.245s2.09-.463 2.266-.526a22.774 22.774 0 001.646-1.714s.561-.684 1.047-.557a.9.9 0 01.666.738.916.916 0 01-.388.954 24.257 24.257 0 01-2.441 1.5 11.475 11.475 0 01-2.779.126.661.661 0 01-.101-.276z"/><path class="cj" d="M146.182 191.492c.165-.153.695-.574.695-.574l-.1-.1a3.845 3.845 0 00-.8.559c-.22.2-.828.834-.828.834l.3.045s.539-.583.733-.764z"/></g></g><g class="cl"><path class="bb" d="M111.064 191.545a.079.079 0 00.065-.034l.4-.575a.08.08 0 10-.131-.092l-.4.575a.08.08 0 00.02.111.078.078 0 00.046.015z"/><path class="bc" d="M111.173 191.319a1.511 1.511 0 01.5 2.2 1.689 1.689 0 01-2.757-1.935 1.547 1.547 0 012.257-.265z"/><path class="bd" d="M110.386 190.964a1.47 1.47 0 00-.634.51 1.626 1.626 0 00.481 2.246 1.778 1.778 0 00.81.312 1.71 1.71 0 01-1.641-.2 1.626 1.626 0 01-.481-2.246 1.544 1.544 0 011.465-.622z"/><path class="be" d="M111.312 191.113a1 1 0 00-.581-.905.726.726 0 00.581.905z"/></g><g class="cl"><path class="bf" d="M117.735 190.226c-1.263.155-.976 1.474-1.143 2.441s-.046 2.54 1.728 2.323 1.508-1.772 1.115-2.672-.437-2.247-1.7-2.092z"/><path class="bg" d="M117.092 191.077c-.074.01-.076.104.012.094s.038-.1-.012-.094zM117.412 190.742c-.075.009-.076.104.011.093s.04-.1-.011-.093zM117.687 190.341c-.075.01-.076.104.011.094s.039-.1-.011-.094zM117.323 191.447c-.074.01-.076.104.011.093s.039-.1-.011-.093zM117.726 191.125c-.075.01-.076.104.011.094s.038-.1-.011-.094zM117.93 190.726c-.074.009-.075.104.012.093s.038-.1-.011-.093zM118.248 191.015c-.074.01-.076.104.012.093s.038-.1-.012-.093zM116.987 191.685c-.074.009-.075.104.012.093s.038-.1-.012-.093zM118.139 191.496c-.074.009-.076.104.011.093s.04-.1-.011-.093zM118.815 191.846c-.075.01-.076.104.011.093s.038-.099-.011-.093zM117.276 192.11c-.074.009-.076.104.012.093s.038-.1-.012-.093zM117.217 192.564c-.074.01-.076.104.012.093s.038-.099-.012-.093zM117.622 192.924c-.074.01-.076.104.012.094s.038-.1-.012-.094zM117.298 193.689c-.074.009-.076.104.011.093s.039-.1-.011-.093zM117.705 191.888c-.074.009-.075.104.012.093s.038-.1-.012-.093zM117.898 192.528c-.074.01-.076.104.011.093s.039-.1-.011-.093zM118.37 192.914c-.074.01-.075.104.012.093s.038-.099-.011-.093zM118.921 193.648c-.074.009-.076.104.012.093s.038-.1-.012-.093zM118.212 192.09c-.074.01-.076.104.011.094s.04-.1-.011-.094zM118.012 193.46c-.074.01-.075.104.012.093s.038-.1-.012-.093zM118.479 194.262c-.075.01-.076.104.011.093s.04-.1-.011-.093zM117.882 194.102c-.075.009-.076.104.011.093s.038-.1-.011-.093zM118.154 194.612c-.075.01-.076.104.011.094s.039-.1-.011-.094zM118.838 192.507c-.074.01-.075.104.012.093s.038-.099-.012-.093zM119.262 192.9c-.074.009-.075.103.012.093s.038-.1-.012-.094zM116.881 192.33c-.074.008-.076.103.012.093s.038-.1-.012-.094zM116.867 193.146c-.075.01-.076.104.011.094s.04-.1-.011-.094zM117.07 194.34c-.074.01-.075.104.012.094s.038-.1-.011-.094z"/></g><g class="cl" transform="rotate(-8 1424.045 -789.637)"><path class="an" d="M.774.281h2.349v1.001H.774z"/><path class="ao" d="M.574 0h2.75v.846H.574z"/><rect class="an" width="3.898" height="3.898" rx="1" transform="translate(0 1.282)"/></g><g class="cl"><path class="ay" d="M112.381 199.829a1.535 1.535 0 111.535-1.535 1.536 1.536 0 01-1.535 1.535z"/><path class="ay" d="M113.916 198.294h-3.07a1.535 1.535 0 003.07 0z"/></g><g class="cl"><path class="al" d="M117.891 197.1l3.57-.377.292 2.765-3.57.377z"/><path class="as" d="M118.05 196.489l3.128-.33.062.588-3.128.33z"/><path class="at" d="M118.404 199.842l3.128-.33.062.588-3.128.33z"/></g><g transform="translate(22.348 124.919)"><circle class="cm" cx="27.801" cy="27.801" r="27.801"/><path class="bj" d="M43 26.976H21.934a1.013 1.013 0 010-2.026h21.067a1.013 1.013 0 010 2.026z"/><path class="bj" d="M28.533 40.568c-.559 0-1.013-.746-1.013-1.667v-18c0-.921.453-1.667 1.013-1.667s1.013.746 1.013 1.667v18c0 .924-.453 1.667-1.013 1.667zM36.23 40.568c-.559 0-1.013-.746-1.013-1.667v-18c0-.921.454-1.667 1.013-1.667s1.013.746 1.013 1.667v18c0 .924-.454 1.667-1.013 1.667z"/><path class="bj" d="M42.354 34.066H22.049a1.019 1.019 0 110-2.026h20.305a1.019 1.019 0 110 2.026z"/><path class="bj" d="M43.484 41.191H21.278a1.308 1.308 0 01-1.308-1.308V19.834a1.308 1.308 0 011.308-1.308h22.206a1.308 1.308 0 011.309 1.308v20.049a1.309 1.309 0 01-1.309 1.308zm-20.9-2.617h19.589v-17.43H22.587z"/><path class="bj" d="M21.279 41.191h-9.5a1.308 1.308 0 01-1.3-1.433l2.569-26.757a1.308 1.308 0 011.3-1.184h4.59a1.308 1.308 0 011.3 1.195l2.34 26.757a1.308 1.308 0 01-1.3 1.422zm-8.057-2.617h6.629l-2.113-24.137h-2.2z"/></g><g transform="translate(138.943 45.603)"><circle class="cm" cx="32.087" cy="32.087" r="32.087"/><path class="bj" d="M30.533 25.245h10.411a1.424 1.424 0 001.423-1.423v-6.51a1.424 1.424 0 00-1.423-1.423H30.533a1.425 1.425 0 00-1.423 1.423v6.51a1.425 1.425 0 001.423 1.423zm.705-2.128v-5.1h9v5.1zM57.715 30.097a2.336 2.336 0 00-2.033-1.2h-5.716v-1.444a1.425 1.425 0 00-1.423-1.423H38.132a1.425 1.425 0 00-1.423 1.423v6.032l-.848.006v-6.038a1.425 1.425 0 00-1.423-1.423h-10.41a1.425 1.425 0 00-1.423 1.423v6.136l-12.344.1a2.236 2.236 0 00-1.824 3.5l5.048 7.346a5.058 5.058 0 004.165 2.191h28.925a4.235 4.235 0 003.608-2l7.477-12.241a2.345 2.345 0 00.055-2.388zm-18.877 3.376v-5.31h9v.738h-2.806a3.942 3.942 0 00-3.245 1.709l-1.969 2.855zm-14.105-5.31h9v5.349l-8.8.064h-.2zm31.116 3.2l-7.474 12.238a2.112 2.112 0 01-1.8 1H17.648a2.929 2.929 0 01-2.411-1.269l-5.043-7.338a.1.1 0 01-.007-.116.089.089 0 01.089-.054l14.675-.115 11.13-.079 1.7-.014 2.606-.021a1.064 1.064 0 00.867-.46l2.284-3.311a1.813 1.813 0 011.492-.788h10.645a.2.2 0 01.183.108.207.207 0 01-.009.219z"/></g><g transform="translate(268.127)"><circle class="cm" cx="32.246" cy="32.246" r="32.246" transform="rotate(-45 55.048 22.802)"/><path class="bj" d="M52.542 55.149h-18.78a1.1 1.1 0 01-1.073-.849 1.91 1.91 0 00-.15-.42l-.021-.046a2.993 2.993 0 00-.271-.484 3.4 3.4 0 00-2.816-1.5 3.446 3.446 0 00-2.831 1.5 2.973 2.973 0 00-.27.482 2.052 2.052 0 01-.021.046 1.9 1.9 0 00-.15.419 1.1 1.1 0 01-1.073.85h-.937a1.764 1.764 0 01-1.762-1.762V36.72a1.764 1.764 0 011.762-1.762h28.395a1.764 1.764 0 011.762 1.762v16.667a1.764 1.764 0 01-1.764 1.762zm-18.007-2.2h17.566V37.161H24.588V52.41c.062-.1.127-.206.2-.307a5.605 5.605 0 019.281.006 5.157 5.157 0 01.455.808zM66.386 55.148h-.805a1.1 1.1 0 01-1.072-.849 1.909 1.909 0 00-.151-.42.454.454 0 01-.021-.045 2.932 2.932 0 00-.271-.483 3.415 3.415 0 00-5.66 0 2.938 2.938 0 00-.271.483l-.021.046a1.879 1.879 0 00-.151.419 1.1 1.1 0 01-1.073.85h-.25a1.764 1.764 0 01-1.762-1.762V40.351a1.764 1.764 0 011.762-1.762h2.841a8.337 8.337 0 018.668 9.259v5.538a1.764 1.764 0 01-1.763 1.762zm-5.151-5.5a5.646 5.646 0 014.645 2.458c.022.032.044.064.065.1v-4.411a1.242 1.242 0 01.008-.131A6.134 6.134 0 0059.56 40.8h-2.479v10.693a5.634 5.634 0 014.155-1.85z"/><path class="bj" d="M29.43 59.559a2.98 2.98 0 01-2.977-2.977 2.937 2.937 0 01.722-1.925 2.93 2.93 0 014.5 0 2.942 2.942 0 01.721 1.925 2.974 2.974 0 01-2.966 2.977zm0-3.75a.687.687 0 00-.556.25c-.01.012-.019.025-.03.036a.732.732 0 00-.187.487.767.767 0 101.534 0 .732.732 0 00-.188-.487.993.993 0 01-.031-.036.681.681 0 00-.542-.251zM61.234 59.559a2.98 2.98 0 01-2.977-2.977 2.938 2.938 0 01.721-1.925 2.944 2.944 0 014.511 0 2.939 2.939 0 01.721 1.925 2.98 2.98 0 01-2.976 2.977zm0-3.75a.7.7 0 00-.556.25l-.03.036a.732.732 0 00-.188.487.774.774 0 001.548 0 .734.734 0 00-.187-.487l-.031-.036a.7.7 0 00-.556-.251z"/></g><g transform="translate(367.494 122.196)"><circle class="cm" cx="29.142" cy="29.142" r="29.142" transform="rotate(-45 49.747 20.606)"/><path class="bj" d="M41.399 57.713q-.415 0-.831-.018c-9.5-.419-16.911-7.981-16.522-16.859a15.491 15.491 0 015.575-11.191 17.771 17.771 0 0112.356-4.151c9.5.419 16.911 7.981 16.523 16.859a15.5 15.5 0 01-5.575 11.19 17.7 17.7 0 01-11.526 4.17zm-.252-29.966a15.431 15.431 0 00-10.053 3.628 13.245 13.245 0 00-4.778 9.559c-.333 7.626 6.1 14.127 14.352 14.49a15.514 15.514 0 0010.784-3.612 13.243 13.243 0 004.778-9.56c.334-7.626-6.1-14.126-14.352-14.49-.245-.01-.493-.015-.731-.015z"/><path class="bj" d="M45.386 41.669a45.477 45.477 0 01-.648 7.894c-.118.651-.254 1.3-.417 1.94a18.877 18.877 0 01-.58 1.9 9.008 9.008 0 01-.866 1.789 3.568 3.568 0 01-.65.761 1.866 1.866 0 01-.426.275 1.278 1.278 0 01-.5.118 1.251 1.251 0 01-.5-.093 1.73 1.73 0 01-.435-.26 3.376 3.376 0 01-.664-.749 8.713 8.713 0 01-.879-1.783 18.418 18.418 0 01-.587-1.9c-.164-.641-.3-1.288-.419-1.938-.237-1.3-.4-2.615-.506-3.932s-.162-2.639-.169-3.961c0-.661.015-1.322.038-1.982s.061-1.32.11-1.979c.1-1.318.243-2.633.459-3.937.109-.652.235-1.3.387-1.944a18.689 18.689 0 01.55-1.906c.11-.312.231-.62.368-.922a6.81 6.81 0 01.472-.875 3.262 3.262 0 01.65-.754 1.654 1.654 0 01.43-.258 1.208 1.208 0 01.494-.088 1.3 1.3 0 01.488.115 1.9 1.9 0 01.424.266 3.6 3.6 0 01.664.741 8.914 8.914 0 01.91 1.762 18.093 18.093 0 01.624 1.882c.176.637.325 1.282.453 1.93a41.565 41.565 0 01.725 7.888zm-.2 0a47.64 47.64 0 00-.156-3.945 38.288 38.288 0 00-.513-3.913 26.903 26.903 0 00-.43-1.926 17.883 17.883 0 00-.6-1.878 8.837 8.837 0 00-.882-1.754 3.554 3.554 0 00-.642-.733 1.839 1.839 0 00-.407-.261 1.2 1.2 0 00-.464-.114 1.135 1.135 0 00-.468.089 1.58 1.58 0 00-.41.253 3.193 3.193 0 00-.627.744 6.682 6.682 0 00-.457.868c-.134.3-.25.607-.356.918a18.7 18.7 0 00-.526 1.9 29.576 29.576 0 00-.364 1.94c-.2 1.3-.332 2.613-.414 3.927s-.113 2.631-.11 3.948.041 2.633.138 3.946.249 2.622.474 3.918c.113.648.245 1.293.4 1.931a18.255 18.255 0 00.567 1.886 8.66 8.66 0 00.852 1.763 3.3 3.3 0 00.635.729 1.643 1.643 0 00.406.247 1.116 1.116 0 00.46.088 1.167 1.167 0 00.455-.112 1.74 1.74 0 00.4-.262 3.486 3.486 0 00.623-.742 8.9 8.9 0 00.839-1.77 18.806 18.806 0 00.561-1.888c.156-.638.286-1.283.4-1.932.224-1.3.372-2.606.471-3.919s.152-2.632.152-3.946z"/><path class="bj" d="M41.268 56.726a1.642 1.642 0 01-.607-.121 2.092 2.092 0 01-.531-.316 3.708 3.708 0 01-.742-.834 9.035 9.035 0 01-.921-1.863 18.732 18.732 0 01-.6-1.937c-.158-.618-.3-1.261-.426-1.965a40.519 40.519 0 01-.511-3.969 52.414 52.414 0 01-.17-3.991 55.22 55.22 0 01.149-3.994 43.53 43.53 0 01.463-3.971c.118-.707.246-1.352.392-1.971a19.073 19.073 0 01.561-1.944c.125-.353.25-.665.383-.954a7.076 7.076 0 01.5-.924 3.575 3.575 0 01.729-.842 2.046 2.046 0 01.531-.318 1.6 1.6 0 01.649-.115 1.676 1.676 0 01.628.147 2.265 2.265 0 01.51.319 3.919 3.919 0 01.736.819 9.172 9.172 0 01.952 1.839 18.409 18.409 0 01.638 1.924c.171.62.321 1.26.46 1.958a41.636 41.636 0 01.731 7.96 45.5 45.5 0 01-.654 7.961c-.127.7-.265 1.347-.421 1.967a18.911 18.911 0 01-.593 1.937 9.319 9.319 0 01-.905 1.866 3.876 3.876 0 01-.723.844 2.23 2.23 0 01-.514.332 1.643 1.643 0 01-.649.151zm-.2-29.2a.758.758 0 00-.291.06 1.225 1.225 0 00-.312.194 2.771 2.771 0 00-.548.655 6.207 6.207 0 00-.43.818c-.118.266-.231.556-.344.886a18.326 18.326 0 00-.514 1.86c-.135.6-.253 1.227-.359 1.914a42.582 42.582 0 00-.411 3.891 59.803 59.803 0 00-.109 3.923c0 1.332.042 2.649.137 3.918.1 1.393.257 2.663.469 3.881.118.681.248 1.3.4 1.9a17.806 17.806 0 00.554 1.845 8.18 8.18 0 00.812 1.684 2.847 2.847 0 00.557.643 1.244 1.244 0 00.308.189.812.812 0 00.3.06.781.781 0 00.308-.077 1.369 1.369 0 00.309-.205 3.035 3.035 0 00.551-.659 8.457 8.457 0 00.8-1.692 18.294 18.294 0 00.548-1.848c.146-.6.275-1.22.393-1.906.208-1.207.361-2.477.466-3.882.1-1.266.145-2.584.145-3.917 0-1.328-.05-2.644-.155-3.913a37.543 37.543 0 00-.507-3.874c-.126-.675-.265-1.3-.424-1.9a17.474 17.474 0 00-.587-1.837 8.381 8.381 0 00-.841-1.677 3.114 3.114 0 00-.57-.653 1.461 1.461 0 00-.321-.207.815.815 0 00-.315-.079z"/><path class="bj" d="M52.027 41.666a19.344 19.344 0 01-.681 5.044 16.27 16.27 0 01-2.1 4.626 13.371 13.371 0 01-1.606 1.974 11.279 11.279 0 01-1.977 1.6 9.494 9.494 0 01-2.306 1.059 8.591 8.591 0 01-5.015 0 9.505 9.505 0 01-2.308-1.057 11.279 11.279 0 01-1.979-1.6 13.338 13.338 0 01-1.609-1.974 16.3 16.3 0 01-2.107-4.627 18.418 18.418 0 01-.511-2.5 18.946 18.946 0 010-5.094 18.351 18.351 0 01.513-2.5 16.274 16.274 0 012.11-4.625 13.381 13.381 0 011.609-1.971 11.3 11.3 0 011.979-1.593 9.547 9.547 0 012.306-1.053 8.543 8.543 0 015.007 0 9.548 9.548 0 012.3 1.055 11.254 11.254 0 011.976 1.595 13.25 13.25 0 011.605 1.972 16.266 16.266 0 012.106 4.623 19.365 19.365 0 01.688 5.046zm-.224 0a19.1 19.1 0 00-.653-4.99 16.217 16.217 0 00-2.035-4.594 13.165 13.165 0 00-1.57-1.968 10.964 10.964 0 00-1.942-1.6 9.356 9.356 0 00-2.276-1.057 8.318 8.318 0 00-4.958 0 9.351 9.351 0 00-2.275 1.058 11.02 11.02 0 00-1.938 1.6 13.235 13.235 0 00-1.566 1.969 16.18 16.18 0 00-2.03 4.592 18.617 18.617 0 00-.489 2.472 19.362 19.362 0 000 5.029 18.566 18.566 0 00.49 2.471 16.17 16.17 0 002.033 4.59 13.176 13.176 0 001.566 1.966 10.941 10.941 0 001.938 1.6 9.381 9.381 0 002.273 1.055 8.263 8.263 0 004.949 0 9.4 9.4 0 002.275-1.053 10.957 10.957 0 001.94-1.595 13.2 13.2 0 001.57-1.966 16.193 16.193 0 002.038-4.591 19.1 19.1 0 00.656-4.988z"/><path class="bj" d="M40.849 56.726a9.051 9.051 0 01-2.619-.39 9.873 9.873 0 01-2.4-1.1 11.659 11.659 0 01-2.048-1.65 13.79 13.79 0 01-1.655-2.031 16.643 16.643 0 01-2.159-4.737 18.738 18.738 0 01-.521-2.556 19.22 19.22 0 010-5.2 18.77 18.77 0 01.523-2.553 16.631 16.631 0 012.162-4.735 13.717 13.717 0 011.656-2.029 11.629 11.629 0 012.047-1.647 9.914 9.914 0 012.4-1.1 8.916 8.916 0 015.228 0 9.916 9.916 0 012.4 1.1 11.642 11.642 0 012.044 1.649 13.717 13.717 0 011.653 2.029 16.618 16.618 0 012.156 4.732 19.688 19.688 0 01.7 5.146 19.69 19.69 0 01-.695 5.145 16.6 16.6 0 01-2.153 4.737 13.716 13.716 0 01-1.652 2.031 11.694 11.694 0 01-2.044 1.652 9.881 9.881 0 01-2.4 1.1 9.077 9.077 0 01-2.623.407zm0-29.258a8.182 8.182 0 00-2.365.362 9 9 0 00-2.182 1.016 10.634 10.634 0 00-1.869 1.543 12.831 12.831 0 00-1.52 1.911 15.751 15.751 0 00-1.981 4.483 18.214 18.214 0 00-.477 2.419 18.913 18.913 0 000 4.929 18.256 18.256 0 00.479 2.419 15.758 15.758 0 001.984 4.479 12.746 12.746 0 001.52 1.909 10.578 10.578 0 001.869 1.541 9.029 9.029 0 002.179 1.011 7.881 7.881 0 004.725 0 9.03 9.03 0 002.183-1.01 10.561 10.561 0 001.871-1.539 12.791 12.791 0 001.524-1.908 15.8 15.8 0 001.989-4.481 18.953 18.953 0 000-9.775 15.8 15.8 0 00-1.986-4.484 12.823 12.823 0 00-1.523-1.91 10.635 10.635 0 00-1.873-1.542 8.959 8.959 0 00-2.182-1.013 8.186 8.186 0 00-2.366-.36z"/><path class="bj" d="M27.803 35.858l3.357-.027 3.358-.015 6.714-.012 6.714.014 3.357.017 3.357.029a.01.01 0 01.01.01s0 .01-.01.01l-3.357.029-3.357.017-6.714.014-6.714-.012-3.358-.016-3.357-.027a.023.023 0 01-.014-.007c0-.017.007-.024.014-.024z"/><path class="bj" d="M41.229 36.328L31.155 36.3l-3.518-.029-.235-.235v-.172l.009-.376.386-.015 6.715-.043 6.716-.012 10.074.031 3.739.033.01.776-.393.01-6.712.046zM31.697 30.214c.795-.013 1.589-.018 2.384-.027l2.383-.016c.795-.006 1.589-.006 2.384-.008h2.383l4.767.014 2.384.017c.795.01 1.589.016 2.383.029a.016.016 0 01.01 0c0 .011 0 .015-.01.015-.794.014-1.589.019-2.383.03l-2.384.017-4.767.014h-2.383c-.8 0-1.589 0-2.384-.008l-2.383-.016c-.795-.009-1.589-.014-2.384-.027a.015.015 0 010-.03z"/><path class="bj" d="M41.236 30.688l-3-.005c-.59 0-1.179 0-1.769-.007l-3.178-.024c-.531-.005-1.061-.01-1.592-.019l-.377-.006-.015-.779.392-.015c.513-.008 1.027-.013 1.54-.018l3.231-.024q.838-.007 1.679-.006l3.09-.006 8.021.041c.506.006 1.013.011 1.519.02l.39.007-.017.773-.38.01c-.524.009-1.055.015-1.585.02l-3.18.026z"/><g><path class="bj" d="M26.637 41.503l3.648-.027 3.649-.015 7.3-.012 7.3.014 3.649.017 3.649.029a.01.01 0 01.01.01s0 .01-.01.01l-3.649.029-3.649.017-7.3.014-7.3-.012-3.649-.016-3.648-.027a.015.015 0 110-.029z"/><path class="bj" d="M41.233 41.972l-10.948-.028-4.031-.03-.014-.782.395-.015 7.3-.043 7.3-.012 10.948.03 3.811.031.232.236-.015.543-.38.01-7.3.046z"/></g><g><path class="bj" d="M27.803 47.148l3.357-.027 3.358-.016 6.714-.012 6.714.014 3.357.017 3.357.029a.016.016 0 01.01 0c0 .011 0 .015-.01.015l-3.357.029-3.357.017-6.714.014-6.714-.012-3.358-.015-3.357-.027a.015.015 0 01-.014-.015.014.014 0 01.014-.011z"/><path class="bj" d="M41.229 47.617l-10.074-.028-3.518-.028-.235-.235v-.172l.008-.376.386-.014 6.715-.043 6.716-.012 10.074.03 3.739.033.01.777-.393.01-6.712.046z"/></g><g><path class="bj" d="M51.245 52.859H32.178a.052.052 0 010-.1h19.067a.052.052 0 110 .1z"/><path class="bj" d="M51.246 53.244H32.177a.436.436 0 010-.873h19.067a.436.436 0 010 .873z"/></g></g></svg>